<mxfile host="app.diagrams.net" agent="Mozilla/5.0 (Windows NT 10.0; Win64; x64) AppleWebKit/537.36 (KHTML, like Gecko) Chrome/126.0.0.0 Safari/537.36 OPR/112.0.0.0" version="24.7.5">
  <diagram name="Page-1" id="o2uXHcyr2Hf20lonnmbf">
    <mxGraphModel dx="1572" dy="1055" grid="0" gridSize="10" guides="1" tooltips="1" connect="1" arrows="1" fold="1" page="0" pageScale="1" pageWidth="850" pageHeight="1100" background="#ffffff" math="0" shadow="0">
      <root>
        <mxCell id="0" />
        <mxCell id="1" parent="0" />
        <mxCell id="ITTwbK8dGZHGDbua6YD3-3" value="" style="edgeStyle=orthogonalEdgeStyle;rounded=0;orthogonalLoop=1;jettySize=auto;html=1;exitX=0.995;exitY=0.63;exitDx=0;exitDy=0;exitPerimeter=0;flowAnimation=1;shadow=1;textShadow=1;dashed=1;dashPattern=8 8;endArrow=block;endFill=1;" parent="1" source="ITTwbK8dGZHGDbua6YD3-1" edge="1">
          <mxGeometry relative="1" as="geometry">
            <mxPoint x="150" y="237" as="sourcePoint" />
            <mxPoint x="350" y="229" as="targetPoint" />
          </mxGeometry>
        </mxCell>
        <mxCell id="ITTwbK8dGZHGDbua6YD3-1" value="" style="aspect=fixed;html=1;dashed=0;whitespace=wrap;verticalLabelPosition=bottom;verticalAlign=top;fillColor=#2875E2;strokeColor=#ffffff;points=[[0.005,0.63,0],[0.1,0.2,0],[0.9,0.2,0],[0.5,0,0],[0.995,0.63,0],[0.72,0.99,0],[0.5,1,0],[0.28,0.99,0]];shape=mxgraph.kubernetes.icon2;kubernetesLabel=1;prIcon=api;rounded=0;textShadow=1;shadow=1;shadowOpacity=25;shadowOffsetX=3;shadowBlur=2;" parent="1" vertex="1">
          <mxGeometry x="-140" y="199" width="50" height="48" as="geometry" />
        </mxCell>
        <mxCell id="ITTwbK8dGZHGDbua6YD3-5" value="" style="edgeStyle=orthogonalEdgeStyle;rounded=0;orthogonalLoop=1;jettySize=auto;html=1;flowAnimation=1;shadow=1;textShadow=1;dashed=1;dashPattern=8 8;endArrow=block;endFill=1;" parent="1" source="ITTwbK8dGZHGDbua6YD3-2" target="ITTwbK8dGZHGDbua6YD3-4" edge="1">
          <mxGeometry relative="1" as="geometry" />
        </mxCell>
        <mxCell id="ITTwbK8dGZHGDbua6YD3-7" value="Stock Reports" style="edgeLabel;html=1;align=center;verticalAlign=bottom;resizable=0;points=[];rounded=0;textShadow=1;labelBackgroundColor=none;labelPosition=center;verticalLabelPosition=top;" parent="ITTwbK8dGZHGDbua6YD3-5" vertex="1" connectable="0">
          <mxGeometry x="-0.1744" y="1" relative="1" as="geometry">
            <mxPoint as="offset" />
          </mxGeometry>
        </mxCell>
        <mxCell id="ITTwbK8dGZHGDbua6YD3-9" value="" style="edgeStyle=orthogonalEdgeStyle;rounded=0;orthogonalLoop=1;jettySize=auto;html=1;exitX=0;exitY=0.25;exitDx=0;exitDy=0;exitPerimeter=0;entryX=0.9;entryY=0.2;entryDx=0;entryDy=0;entryPerimeter=0;flowAnimation=1;shadow=1;textShadow=1;dashed=1;dashPattern=8 8;endArrow=block;endFill=1;" parent="1" source="ITTwbK8dGZHGDbua6YD3-2" target="ITTwbK8dGZHGDbua6YD3-1" edge="1">
          <mxGeometry relative="1" as="geometry">
            <mxPoint x="150" y="212" as="targetPoint" />
          </mxGeometry>
        </mxCell>
        <mxCell id="ITTwbK8dGZHGDbua6YD3-10" value="Async API calls" style="edgeLabel;html=1;align=center;verticalAlign=bottom;resizable=0;points=[];rounded=0;textShadow=1;labelBackgroundColor=none;labelPosition=center;verticalLabelPosition=top;" parent="ITTwbK8dGZHGDbua6YD3-9" vertex="1" connectable="0">
          <mxGeometry x="0.1321" y="-1" relative="1" as="geometry">
            <mxPoint as="offset" />
          </mxGeometry>
        </mxCell>
        <mxCell id="ITTwbK8dGZHGDbua6YD3-2" value="Lambda" style="points=[[0,0,0],[0.25,0,0],[0.5,0,0],[0.75,0,0],[1,0,0],[0,1,0],[0.25,1,0],[0.5,1,0],[0.75,1,0],[1,1,0],[0,0.25,0],[0,0.5,0],[0,0.75,0],[1,0.25,0],[1,0.5,0],[1,0.75,0]];outlineConnect=0;fontColor=#232F3E;fillColor=#ED7100;strokeColor=#ffffff;dashed=0;verticalLabelPosition=bottom;verticalAlign=top;align=center;html=1;fontSize=12;fontStyle=0;aspect=fixed;shape=mxgraph.aws4.resourceIcon;resIcon=mxgraph.aws4.lambda;rounded=0;textShadow=1;shadow=1;shadowOpacity=25;shadowOffsetX=3;shadowBlur=2;" parent="1" vertex="1">
          <mxGeometry x="350" y="197" width="50" height="50" as="geometry" />
        </mxCell>
        <mxCell id="nE54sVmQkq34b5bNo_KB-2" value="" style="edgeStyle=orthogonalEdgeStyle;rounded=0;orthogonalLoop=1;jettySize=auto;html=1;exitX=1;exitY=0.5;exitDx=0;exitDy=0;exitPerimeter=0;flowAnimation=1;shadow=1;textShadow=1;dashed=1;dashPattern=8 8;endArrow=block;endFill=1;" parent="1" source="ITTwbK8dGZHGDbua6YD3-4" target="nE54sVmQkq34b5bNo_KB-1" edge="1">
          <mxGeometry relative="1" as="geometry" />
        </mxCell>
        <mxCell id="nE54sVmQkq34b5bNo_KB-3" value="Trigger" style="edgeLabel;html=1;align=center;verticalAlign=bottom;resizable=0;points=[];rounded=0;textShadow=1;labelBackgroundColor=none;labelPosition=center;verticalLabelPosition=top;" parent="nE54sVmQkq34b5bNo_KB-2" vertex="1" connectable="0">
          <mxGeometry x="0.1461" relative="1" as="geometry">
            <mxPoint x="-12" as="offset" />
          </mxGeometry>
        </mxCell>
        <mxCell id="ITTwbK8dGZHGDbua6YD3-4" value="S3 bucket" style="points=[[0,0,0],[0.25,0,0],[0.5,0,0],[0.75,0,0],[1,0,0],[0,1,0],[0.25,1,0],[0.5,1,0],[0.75,1,0],[1,1,0],[0,0.25,0],[0,0.5,0],[0,0.75,0],[1,0.25,0],[1,0.5,0],[1,0.75,0]];outlineConnect=0;fontColor=#232F3E;fillColor=#7AA116;strokeColor=#ffffff;dashed=0;verticalLabelPosition=bottom;verticalAlign=top;align=center;html=1;fontSize=12;fontStyle=0;aspect=fixed;shape=mxgraph.aws4.resourceIcon;resIcon=mxgraph.aws4.s3;rounded=0;textShadow=1;shadow=1;shadowOpacity=25;shadowOffsetX=3;shadowBlur=2;" parent="1" vertex="1">
          <mxGeometry x="540" y="196" width="51" height="51" as="geometry" />
        </mxCell>
        <mxCell id="ITTwbK8dGZHGDbua6YD3-16" style="edgeStyle=orthogonalEdgeStyle;rounded=0;orthogonalLoop=1;jettySize=auto;html=1;textShadow=1;" parent="1" source="ITTwbK8dGZHGDbua6YD3-11" edge="1">
          <mxGeometry relative="1" as="geometry">
            <mxPoint x="220" y="230" as="targetPoint" />
          </mxGeometry>
        </mxCell>
        <mxCell id="ITTwbK8dGZHGDbua6YD3-11" value="Extract" style="text;html=1;align=center;verticalAlign=middle;resizable=0;points=[];autosize=1;strokeColor=none;fillColor=none;rounded=0;textShadow=1;" parent="1" vertex="1">
          <mxGeometry x="190" y="338" width="60" height="30" as="geometry" />
        </mxCell>
        <mxCell id="ITTwbK8dGZHGDbua6YD3-15" value="" style="edgeStyle=orthogonalEdgeStyle;rounded=0;orthogonalLoop=1;jettySize=auto;html=1;textShadow=1;" parent="1" source="ITTwbK8dGZHGDbua6YD3-12" target="ITTwbK8dGZHGDbua6YD3-2" edge="1">
          <mxGeometry relative="1" as="geometry" />
        </mxCell>
        <mxCell id="ITTwbK8dGZHGDbua6YD3-12" value="Transform" style="text;html=1;align=center;verticalAlign=middle;resizable=0;points=[];autosize=1;strokeColor=none;fillColor=none;rounded=0;textShadow=1;" parent="1" vertex="1">
          <mxGeometry x="335" y="338" width="80" height="30" as="geometry" />
        </mxCell>
        <mxCell id="ITTwbK8dGZHGDbua6YD3-14" value="" style="edgeStyle=orthogonalEdgeStyle;rounded=0;orthogonalLoop=1;jettySize=auto;html=1;textShadow=1;" parent="1" source="ITTwbK8dGZHGDbua6YD3-13" target="ITTwbK8dGZHGDbua6YD3-4" edge="1">
          <mxGeometry relative="1" as="geometry" />
        </mxCell>
        <mxCell id="ITTwbK8dGZHGDbua6YD3-13" value="Load" style="text;html=1;align=center;verticalAlign=middle;resizable=0;points=[];autosize=1;strokeColor=none;fillColor=none;rounded=0;textShadow=1;" parent="1" vertex="1">
          <mxGeometry x="540" y="338" width="50" height="30" as="geometry" />
        </mxCell>
        <mxCell id="nE54sVmQkq34b5bNo_KB-1" value="SNS" style="points=[[0,0,0],[0.25,0,0],[0.5,0,0],[0.75,0,0],[1,0,0],[0,1,0],[0.25,1,0],[0.5,1,0],[0.75,1,0],[1,1,0],[0,0.25,0],[0,0.5,0],[0,0.75,0],[1,0.25,0],[1,0.5,0],[1,0.75,0]];outlineConnect=0;fontColor=#232F3E;fillColor=#E7157B;strokeColor=#ffffff;dashed=0;verticalLabelPosition=bottom;verticalAlign=top;align=center;html=1;fontSize=12;fontStyle=0;aspect=fixed;shape=mxgraph.aws4.resourceIcon;resIcon=mxgraph.aws4.sns;rounded=0;textShadow=1;shadow=1;shadowOpacity=25;shadowOffsetX=3;shadowBlur=2;" parent="1" vertex="1">
          <mxGeometry x="680" y="196" width="51" height="51" as="geometry" />
        </mxCell>
        <mxCell id="nE54sVmQkq34b5bNo_KB-5" value="" style="edgeStyle=orthogonalEdgeStyle;rounded=0;orthogonalLoop=1;jettySize=auto;html=1;exitX=1;exitY=0.5;exitDx=0;exitDy=0;exitPerimeter=0;flowAnimation=1;shadow=1;curved=0;strokeColor=default;dashed=1;endArrow=block;endFill=1;textShadow=1;dashPattern=8 8;" parent="1" source="nE54sVmQkq34b5bNo_KB-1" target="Y-1F-ggwo0hZJFiPh9Xv-8" edge="1">
          <mxGeometry relative="1" as="geometry">
            <mxPoint x="790" y="312" as="sourcePoint" />
            <mxPoint x="849.9999999999998" y="221" as="targetPoint" />
          </mxGeometry>
        </mxCell>
        <mxCell id="nE54sVmQkq34b5bNo_KB-6" value="Send Email&lt;div&gt;notification&lt;/div&gt;" style="edgeLabel;html=1;align=center;verticalAlign=middle;resizable=0;points=[];rounded=0;textShadow=1;labelBackgroundColor=none;" parent="nE54sVmQkq34b5bNo_KB-5" vertex="1" connectable="0">
          <mxGeometry x="-0.375" y="1" relative="1" as="geometry">
            <mxPoint x="15" as="offset" />
          </mxGeometry>
        </mxCell>
        <mxCell id="jdz7ys1h3WdiXmTh5ITs-2" value="" style="edgeStyle=orthogonalEdgeStyle;rounded=0;orthogonalLoop=1;jettySize=auto;html=1;flowAnimation=1;shadow=1;textShadow=1;dashed=1;dashPattern=8 8;endArrow=block;endFill=1;" parent="1" source="jdz7ys1h3WdiXmTh5ITs-1" target="ITTwbK8dGZHGDbua6YD3-2" edge="1">
          <mxGeometry relative="1" as="geometry" />
        </mxCell>
        <mxCell id="jdz7ys1h3WdiXmTh5ITs-3" value="CRON schedule&lt;div&gt;&lt;span style=&quot;background-color: initial;&quot;&gt;Weekly&lt;/span&gt;&lt;/div&gt;" style="edgeLabel;html=1;align=center;verticalAlign=bottom;resizable=0;points=[];rounded=0;textShadow=1;labelBackgroundColor=none;labelPosition=center;verticalLabelPosition=top;" parent="jdz7ys1h3WdiXmTh5ITs-2" vertex="1" connectable="0">
          <mxGeometry x="-0.0958" y="-1" relative="1" as="geometry">
            <mxPoint as="offset" />
          </mxGeometry>
        </mxCell>
        <mxCell id="Y-1F-ggwo0hZJFiPh9Xv-8" value="" style="dashed=0;outlineConnect=0;html=1;align=center;labelPosition=center;verticalLabelPosition=bottom;verticalAlign=top;shape=mxgraph.weblogos.gmail;rounded=0;textShadow=1;shadow=1;gradientColor=none;shadowOpacity=25;shadowOffsetX=3;shadowBlur=2;" parent="1" vertex="1">
          <mxGeometry x="840" y="198.1" width="64.8" height="46.800000000000004" as="geometry" />
        </mxCell>
        <mxCell id="CoTiiyDsySYmnr1Bi5lT-9" value="" style="edgeStyle=orthogonalEdgeStyle;rounded=0;orthogonalLoop=1;jettySize=auto;html=1;entryX=0.232;entryY=1;entryDx=0;entryDy=0;entryPerimeter=0;exitX=0.127;exitY=0.02;exitDx=0;exitDy=0;exitPerimeter=0;textShadow=1;endArrow=block;endFill=1;" parent="1" source="CoTiiyDsySYmnr1Bi5lT-2" target="CoTiiyDsySYmnr1Bi5lT-8" edge="1">
          <mxGeometry relative="1" as="geometry">
            <mxPoint x="230" y="40" as="sourcePoint" />
          </mxGeometry>
        </mxCell>
        <mxCell id="CoTiiyDsySYmnr1Bi5lT-2" value="Parameter store" style="outlineConnect=0;fontColor=#232F3E;gradientColor=none;fillColor=#E7157B;strokeColor=none;dashed=0;verticalLabelPosition=bottom;verticalAlign=top;align=center;html=1;fontSize=12;fontStyle=0;aspect=fixed;pointerEvents=1;shape=mxgraph.aws4.parameter_store;rounded=0;textShadow=1;shadow=1;shadowOpacity=25;shadowOffsetX=3;shadowBlur=2;" parent="1" vertex="1">
          <mxGeometry x="150" y="45.75" width="52.16" height="54.25" as="geometry" />
        </mxCell>
        <mxCell id="pqD9mB6R0O3XIB4uo_MR-3" value="" style="points=[[0,0],[0.25,0],[0.5,0],[0.75,0],[1,0],[1,0.25],[1,0.5],[1,0.75],[1,1],[0.75,1],[0.5,1],[0.25,1],[0,1],[0,0.75],[0,0.5],[0,0.25]];outlineConnect=0;html=1;whiteSpace=wrap;fontSize=12;fontStyle=0;container=1;pointerEvents=0;collapsible=0;recursiveResize=0;shape=mxgraph.aws4.group;grIcon=mxgraph.aws4.group_aws_cloud_alt;strokeColor=#36393d;fillColor=none;verticalAlign=top;align=left;spacingLeft=30;dashed=0;" vertex="1" parent="1">
          <mxGeometry x="-10" y="-97.5" width="818.67" height="507.5" as="geometry" />
        </mxCell>
        <mxCell id="jdz7ys1h3WdiXmTh5ITs-1" value="Eventbridge" style="points=[[0,0,0],[0.25,0,0],[0.5,0,0],[0.75,0,0],[1,0,0],[0,1,0],[0.25,1,0],[0.5,1,0],[0.75,1,0],[1,1,0],[0,0.25,0],[0,0.5,0],[0,0.75,0],[1,0.25,0],[1,0.5,0],[1,0.75,0]];outlineConnect=0;fontColor=#232F3E;fillColor=#E7157B;strokeColor=#ffffff;dashed=0;verticalLabelPosition=top;verticalAlign=bottom;align=center;html=1;fontSize=12;fontStyle=0;aspect=fixed;shape=mxgraph.aws4.resourceIcon;resIcon=mxgraph.aws4.eventbridge;labelPosition=center;rounded=0;textShadow=1;shadow=1;shadowOpacity=25;shadowOffsetX=3;shadowBlur=2;" parent="pqD9mB6R0O3XIB4uo_MR-3" vertex="1">
          <mxGeometry x="360" y="87.5" width="50" height="50" as="geometry" />
        </mxCell>
        <mxCell id="Y-1F-ggwo0hZJFiPh9Xv-9" value="IAM" style="outlineConnect=0;dashed=0;verticalLabelPosition=bottom;verticalAlign=top;align=center;html=1;shape=mxgraph.aws3.iam;fillColor=#759C3E;gradientColor=none;rounded=0;textShadow=1;shadow=1;shadowOpacity=25;shadowOffsetX=3;shadowBlur=2;" parent="pqD9mB6R0O3XIB4uo_MR-3" vertex="1">
          <mxGeometry x="550" y="70" width="42" height="81" as="geometry" />
        </mxCell>
        <mxCell id="Y-1F-ggwo0hZJFiPh9Xv-1" value="Cloudwatch" style="points=[[0,0,0],[0.25,0,0],[0.5,0,0],[0.75,0,0],[1,0,0],[0,1,0],[0.25,1,0],[0.5,1,0],[0.75,1,0],[1,1,0],[0,0.25,0],[0,0.5,0],[0,0.75,0],[1,0.25,0],[1,0.5,0],[1,0.75,0]];points=[[0,0,0],[0.25,0,0],[0.5,0,0],[0.75,0,0],[1,0,0],[0,1,0],[0.25,1,0],[0.5,1,0],[0.75,1,0],[1,1,0],[0,0.25,0],[0,0.5,0],[0,0.75,0],[1,0.25,0],[1,0.5,0],[1,0.75,0]];outlineConnect=0;fontColor=#232F3E;fillColor=#E7157B;strokeColor=#ffffff;dashed=0;verticalLabelPosition=bottom;verticalAlign=top;align=center;html=1;fontSize=12;fontStyle=0;aspect=fixed;shape=mxgraph.aws4.resourceIcon;resIcon=mxgraph.aws4.cloudwatch_2;rounded=0;textShadow=1;shadow=1;gradientColor=none;shadowOpacity=25;shadowOffsetX=3;shadowBlur=2;" parent="pqD9mB6R0O3XIB4uo_MR-3" vertex="1">
          <mxGeometry x="690" y="87.5" width="54" height="54" as="geometry" />
        </mxCell>
        <mxCell id="CoTiiyDsySYmnr1Bi5lT-4" value="" style="endArrow=block;html=1;rounded=0;exitX=1.003;exitY=-0.014;exitDx=0;exitDy=0;exitPerimeter=0;entryX=0;entryY=1;entryDx=0;entryDy=0;entryPerimeter=0;curved=1;textShadow=1;endFill=1;" parent="1" source="ITTwbK8dGZHGDbua6YD3-1" target="CoTiiyDsySYmnr1Bi5lT-2" edge="1">
          <mxGeometry width="50" height="50" relative="1" as="geometry">
            <mxPoint x="130" y="180" as="sourcePoint" />
            <mxPoint x="180" y="130" as="targetPoint" />
            <Array as="points" />
          </mxGeometry>
        </mxCell>
        <mxCell id="CoTiiyDsySYmnr1Bi5lT-6" value="Store API Key" style="edgeLabel;html=1;align=center;verticalAlign=bottom;resizable=0;points=[];rounded=0;textShadow=1;labelBackgroundColor=none;labelPosition=center;verticalLabelPosition=top;" parent="CoTiiyDsySYmnr1Bi5lT-4" vertex="1" connectable="0">
          <mxGeometry x="0.1858" y="1" relative="1" as="geometry">
            <mxPoint as="offset" />
          </mxGeometry>
        </mxCell>
        <mxCell id="CoTiiyDsySYmnr1Bi5lT-5" value="" style="endArrow=block;html=1;rounded=0;flowAnimation=1;shadow=1;textShadow=1;dashed=1;dashPattern=8 8;endFill=1;" parent="1" source="CoTiiyDsySYmnr1Bi5lT-2" target="ITTwbK8dGZHGDbua6YD3-2" edge="1">
          <mxGeometry width="50" height="50" relative="1" as="geometry">
            <mxPoint x="250" y="189" as="sourcePoint" />
            <mxPoint x="320" y="90" as="targetPoint" />
          </mxGeometry>
        </mxCell>
        <mxCell id="CoTiiyDsySYmnr1Bi5lT-7" value="Retrieve API Key" style="edgeLabel;html=1;align=center;verticalAlign=bottom;resizable=0;points=[];rounded=0;textShadow=1;labelBackgroundColor=none;labelPosition=center;verticalLabelPosition=top;" parent="CoTiiyDsySYmnr1Bi5lT-5" vertex="1" connectable="0">
          <mxGeometry x="-0.1718" relative="1" as="geometry">
            <mxPoint as="offset" />
          </mxGeometry>
        </mxCell>
        <mxCell id="CoTiiyDsySYmnr1Bi5lT-10" value="" style="edgeStyle=orthogonalEdgeStyle;rounded=0;orthogonalLoop=1;jettySize=auto;html=1;textShadow=1;endArrow=block;endFill=1;" parent="1" source="CoTiiyDsySYmnr1Bi5lT-8" target="CoTiiyDsySYmnr1Bi5lT-2" edge="1">
          <mxGeometry relative="1" as="geometry" />
        </mxCell>
        <mxCell id="CoTiiyDsySYmnr1Bi5lT-11" value="Encrypted Key" style="edgeLabel;html=1;align=center;verticalAlign=bottom;resizable=0;points=[];rounded=0;textShadow=1;labelBackgroundColor=none;labelPosition=center;verticalLabelPosition=top;" parent="CoTiiyDsySYmnr1Bi5lT-10" vertex="1" connectable="0">
          <mxGeometry x="-0.0489" relative="1" as="geometry">
            <mxPoint as="offset" />
          </mxGeometry>
        </mxCell>
        <mxCell id="CoTiiyDsySYmnr1Bi5lT-8" value="KMS" style="outlineConnect=0;dashed=0;verticalLabelPosition=top;verticalAlign=bottom;align=center;html=1;shape=mxgraph.aws3.kms;fillColor=#759C3E;gradientColor=none;labelPosition=center;rounded=0;textShadow=1;shadow=1;shadowOpacity=25;shadowOffsetX=3;shadowBlur=2;" parent="1" vertex="1">
          <mxGeometry x="142.15000000000003" y="-60" width="60.01" height="60" as="geometry" />
        </mxCell>
        <mxCell id="pqD9mB6R0O3XIB4uo_MR-6" value="" style="shape=image;verticalLabelPosition=bottom;labelBackgroundColor=default;verticalAlign=top;aspect=fixed;imageAspect=0;image=data:image/png,iVBORw0KGgoAAAANSUhEUgAABQAAAALQCAYAAADPfd1WAAAgAElEQVR42uzdZ5Nd53mo6ad33t3IaGSAyDlHAswmLck69rHPmZqa33H+00zNF5erjj0e2TqURDGABEAQicg5p240Uoed92AtWrY8liyQROhefV1Vu1pAIVQt9Ielm+/zvD3dZwIAAAAAyKScRwAAAAAA2SUAAgAAAECGCYAAAAAAkGECIAAAAABkmAAIAAAAABkmAAIAAABAhgmAAAAAAJBhAiAAAAAAZJgACAAAAAAZJgACAAAAQIYJgAAAAACQYQIgAAAAAGSYAAgAAAAAGSYAAgAAAECGCYAAAAAAkGECIAAAAABkmAAIAAAAABkmAAIAAABAhgmAAAAAAJBhAiAAAAAAZJgACAAAAAAZJgACAAAAQIYJgAAAAACQYQIgAAAAAGSYAAgAAAAAGSYAAgAAAECGCYAAAAAAkGECIAAAAABkmAAIAAAAABkmAAIAAABAhgmAAAAAAJBhAiAAAAAAZJgACAAAAAAZJgACAAAAQIYJgAAAAACQYQIgAAAAAGSYAAgAAAAAGSYAAgAAAECGCYAAAAAAkGECIAAAAABkmAAIAAAAABkmAAIAAABAhgmAAAAAAJBhAiAAAAAAZJgACAAAAAAZJgACAAAAQIYJgAAAAACQYQIgAAAAAGSYAAgAAAAAGSYAAgAAAECGCYAAAAAAkGECIAAAAABkmAAIAAAAABkmAAIAAABAhgmAAAAAAJBhAiAAAAAAZJgACAAAAAAZJgACAAAAQIYJgAAAAACQYQIgAAAAAGSYAAgAAAAAGSYAAgAAAECGCYAAAAAAkGECIAAAAABkmAAIAAAAABkmAAIAAABAhgmAAAAAAJBhAiAAAAAAZJgACAAAAAAZJgACAAAAQIYJgAAAAACQYQIgAAAAAGSYAAgAAAAAGSYAAgAAAECGCYAAAAAAkGECIAAAAABkmAAIAAAAABkmAAIAAABAhgmAAAAAAJBhAiAAAAAAZJgACAAAAAAZJgACAAAAQIYJgAAAAACQYQIgAAAAAGSYAAgAAAAAGSYAAgAAAECGCYAAAAAAkGECIAAAAABkmAAIAAAAABkmAAIAAABAhgmAAAAAAJBhAiAAAAAAZJgACAAAAAAZJgACAAAAQIYJgAAAAACQYQIgAAAAAGSYAAgAAAAAGSYAAgAAAECGCYAAAAAAkGECIAAAAABkmAAIAAAAABkmAAIAAABAhgmAAAAAAJBhAiAAAAAAZJgACAAAAAAZJgACAAAAQIYJgAAAAACQYQIgAAAAAGSYAAgAAAAAGSYAAgAAAECGCYAAAAAAkGECIAAAAABkmAAIAAAAABkmAAIAAABAhgmAAAAAAJBhAiAAAAAAZJgACAAAAAAZJgACAAAAQIYJgAAAAACQYQIgAAAAAGSYAAgAAAAAGSYAAgAAAECGCYAAMIF1uxGjI524fqUZTx530h8DAAD8voJHAAATV7vdjYdDnfjF/xyOQqEndu2rxJoNpejt9d/4AACA7wiAADDBJRHw5rVW3LrRiqHBdty52Y6tu8oxd34+jYIAAMDkJgACQAYkk7+tVjdOnqjHpQvNOHOyHms3ltITgf39+cgLgQAAMGkJgACQId3OdzsBTxypx43rzfRE4Kat5e/Ggvty0aMDAgDApCMAAkAGJWPBg/fa8Zt/Ho1Tx+uxcUs5Nu8ox7qN5ShXeoRAAACYRARAAMiwZCw42Q348EE7bt1sxdCzr2vWl2L+wmIUvAUAAMCk4NUfACaB0dFuehLw9s1WLH6jELv3VWPD5lLMnpuPfN6JQAAAyDIBEAAmkeQk4KOhdjx51InrV5uxY08llq8qRt8U+wEBACCrBEAAmGS63YhrV5rpaPClc41YsaYU+96rxhvLClGpCoEAAJA1AiAATFLJfsCrl5tx724rHj9qx/pNpdi+uxqz+pOxYM8HAACyQgAEgEksOQ04OtKNIwdrceFMI86cbMT6zeXYva8SU6flolBwHBAAACY6ARAAiE4n4vGjThw7/N1FIUMD7Vi3sRQbtpajVBIBAQBgIhMAAYB/1Wp24/aNVjwYGIkTR2ux9Uwltu+qxNKVxTQE2g8IAAATjwAIAPwH9Vo3bl5LdgOOppeFbN9djs3bKzG7Py8CAgDABCMAAgB/ULIf8Ek6FlyL61eacfxwPXa/VYm1G8sxc2Yu8vYDAgDAhCAAAgD/qW4n4sFAOx49bMfQg3ZcPt+Mtz6oxpJlRfsBAQBgAhAAAYDn0m5FXL3UTHcEXrvajNVrS7HnnWrMX5CPSjVnNBgAAMYpARAAeG7JWHC93o0LZxpx91Yr7t9rx4Yt5dizrxJ9U3ORy3lGAAAw3giAAMD31ulEPH7UiW8OjMWl8404e7IeW3d+d1FIX19PFIqOAwIAwHghAAIAP1i7/d1+wKePa3H3dis9FZhEwNXrS04DAgDAOCEAAgA/WqPRjWuXmzFwrx2nv23Ett3lWL+pHEuXF9PTgGIgAAC8PgIgAPBCJPsBR4Y7celCIx4+aMelc83Y91411m4sxcxZeQ8IAABeEwEQAHihOu2IwYF2PHrYjju3WukpwOS24DXrizFlai7yefsBAQDgVRIAAYCXotWKdC9gchpwcKAVly+U450PemPewnwUCiIgAAC8KgIgAPDSJGPBtVo3Lp1vxp1b7bj87GsyErz33WrMmp2PcqUnerRAAAB4qQRAAOCl+91+wHOn6+mpwNs3W7FrbyV2vllJLwkRAQEA4OURAAGAV6bdjhh60I5vDtbi+pVmfHusHlt3VmLT1lKUyz2RNxoMAAAvnAAIALxyrWY3PQn46GEnbl5txs1rldj9ViWWLC16OAAA8IIJgADAa5GMBY+NduLKpU7cv9+OM9/WY9uuSmzdWY65CwpRNBoMAAAvhAAIALxWSQgcftKJC2cbMXi/HVcuNuODn/bGitXF6O3LeUAAAPAjCYAAwLiQ7AccHGjH48e1uHWjGctXluKdD6uxeGkx+qbkIp/3jAAA4IcQAAGAcaXZ6MatG614MNCO+/dasWFrOd77sBqzZhciJwICAMD3JgACAONOuh9wrJuOBd++2YoLZxqxaWs5dr9VjWkzcumNwfYDAgDA8xEAAYBxq9OJePqkE2dPNtJbg+/casXOvZXYtK0chYIICAAAz0MABADGvVarm44EH9w/FhfPNeLbo+XYuqMSq9cXo1TuSWMgAADwhwmAAMCEkIwF18a6cftWKx497MSVS83Y+04ltuyoxIJFXmkAAOCP8bYMAEwo3U7EyHAnrlxoxOC9dhw5VI+3P6jGug2lmDE7H6WS04AAAPD7BEAAYEJqtyMePWzH8HAnhgbbcXpNMf7sZ32x8tlXI8EAAPBvBEAAYEJrNbtx704rHg614/rVZqxdX4633q/GgsWF6JuSc1EIAACTngAIAEx4yX7Aeq0bt663YmiwE7dvNmPHm9V454NqVPtykct5RgAATF4CIACQGZ1/2Q947kwjbt1ox5lv67FtdyW2bC/HlKm59MZgAACYbARAACBz2q2Ix4/a8e2xTty83oprl5ux5+1KrFlfTk8DGgsGAGAyEQABgMxq1Ltx/24r9n/y3WnAHW9WYtuuSixZWohyxWgwAACTg9deACDTkv2AY2PduHOrFZ9+PBp/938/jaNf1+PJ4046MgwAAFnnBCAAMCkksS+JfudP1+P2zVYsX1GMdz/qjWUrCzFzdj4KBXPBAABkkwAIAEwqrVbEo6F2nBrpxP177Vi3oRQf/rw35i8qRLHYYz8gAACZIwACAJNSsh/w9s1mPBhoxeVLjVi/uRz73q3G3PmFqPYKgQAAZIcACABMWsl+wFqtG9evtGLwfjvu32nFzjersWVHOfqm9ETeWDAAABkgAAIAk1673Y2nT7px/Eg9Ll9oxomjpfS24PWbSzF1ai4KRSEQAICJSwAEAPgXzUY3Hg6149jhWly/2ox7d6qxe28lFi0tGgkGAGDCynkEAAD/JhkLHhvtxu0brfjl/zMSv/7lSDx53PZgAACYsARAAIA/IAmBoyOdGBnuRkf/AwBgAhMAAQAAACDDBEAAAAAAyDABEAAAAAAyTAAEAPiRGvVujAx3otHoprsDISs6nYjR0VY8edLwMABgAit4BAAAP86Zk/U4faIRC5cUYvW6UvTPyUex1BM9PZ4NE1On043R0Xbcvz8an3xyOx49asT/+B+bI5/3TQ0AE5EACADwIyUnAK9easbRQ7VYubYUb39QjSXLijF1ai5yec+HiaXV6sTDh/U4cuRBHDhwL44ffxALF/Z6MAAwgQmAAAAvQKPZjbt3WjEw0IqL5xqxaVs53nq/GgsWFaK3Lxc5i1cY59rtbjx6VI8LFx6np/6++upejI210yA4d27FAwKACUwABAB4QZL9f61mxMC9Vnz1WSfu3m7Ftl3l2LqzErNm56NUNj7J+JOM+9Zq7bh1ayS+/PJefPrpnRgYGIvh4aaHAwAZIQACALxg7Xakl4KcPlGPC2cbcfyberz5TjU2bC7F9Jn5KJWEQF6/JFgn4e/27ZE4cmQwfvGL63Hv3tizn2u5zAYAMkYABAB4SZIbVOu1bpw/3Yi7t9tx9WI5du6txPJVxaj2Ggvm9Wm3O/HgQT3On38c//zP1+PixSfpj5NxXwAgewRAAICXrF7vpmPBn/66HUe+rsV7H/XGlh3lWPRGMapVtwXz6iTjvkND9bhxYyQ98Xf06GC69y/Z/wcAZJcACADwijQb3Xg01I5PfjkSZ07W4/0/743V60oxuz8fRWPBvETJSO/YWCvu3x+L3/72dhw6NBDXrw+nP5dEQQAg2wRAAIBXKBkLfvyoE0+fNOLG1WasWFWKP/tZbyxbWYpZ/bkoFIRAXqxkz18S/g4duh+/+tXNuHJlOJrNtj1/ADCJCIAAAK9BEgLHRrtx/mwjHg51Yu3GUrz9QTUWLi5Eb5/9gPx4yT6/J0+acfr0w/j009tx7NiDePy4Ec2mPX8AMNkIgAAAr0lyAqtR78atG824e7uZXhayY085dr1VjXkLCvYD8oMkI71PnzbjwoXHceDAvfj441sxPNw06gsAk5gACAAwDrTbEXdvt+I3v2zHzRut2LGnEus3lWLGrHyU7AfkOSRBuVZrxe3bo3H8+IP453++EffujaUxsGveFwAmNQEQAGCcaLW6Mfy0G0cP1eL44Vrs2leN3fsq6UUh02fkI+/NjT8gaXvJWO/t2yPpuO8//MO1uHbtabr7DwAg4TUSAGCcSYJOciLwxJFaXL7QiH3v9ca2XeV0P2C1135A/k273Y2hoVpcuzYcv/zlzTh1aigGB2vp/j8AgN8RAAEAxqnkkpCx0Xb84n8Ox9dfjcW7H1Zj87ZKzF9YiHLFfsDJLInEjx7V49atkfj445tx8OBADAyM2fMHAPxBAiAAwDiXjAYP3G3Hx/84GhfONOOt96uxbGUx+ucWouBtbtIZG2ulp/z2778bBw/ej8uXn8TISEv8AwD+KK+MAADjXfe7CPhwqJ1+LpxtxNqNpfjzn/fF4qXFmDbdWPBkkOz5GxqqxzffDMYnn9yKb78dinrdnj8A4E8TAAEAJpjRkU6cPFaPoQft2Lq9Etv3lGPegkL09uWMBWdQsufv8eNGXLr0JA4cuBdffXUvDYGNhvgHADwfARAAYILpdCLqtW5cudBMP8eP1GLP29XYurMcc+cXolxWAbPx79yN0dF2XL36JB33/dWvbqXhz6gvAPB9CYAAABPczWutGLw/HNcvN2Pn3kqsXFOKGbPy9gNOUN105LsTN24Mx5kzj9JLPq5efRrDw03xDwD4QbwWAgBMcM1mN/0c+GIsjh6ux753q2kIXLG6GH1T7AecSJLAd/fuaFy9Ohx/93eX4/Tph1GrGfUFAH4cARAAICOSk2P1WicO7h+LC+ca8e6H1Vi9vhRL3ihEuWI/4Hj34EEtbt8ejU8+uR2HDw/E/ftj9vwBAC+EAAgAkCFJBEwuCUk+f/t/tmL+wnz85C/7YtXaUixYVIhiSQUcb54+bcSdO2Pxm9/cis8+uxP37o0Z9QUAXigBEAAgo5LbY+/ebsc//O1wrF5Xin3vVeKN5aWY1Z83FjwOJKO9yam/I0cG0/B3/vzjGBmx5w8AePEEQACAjPruMoluPBhsx4MvxuLsyXps212Jfe9XY9HiYkydbj/g65Bc8PHwYT2OH38QX3xxNx33HRlpeTAAwEsjAAIATBJPnny3H/DO7VZs2VGOLdsrMW9BIarVngiTwS9dcrIvuck3Oel34sRQfPrp7XTPX71uzx8A8HIJgAAAk0SnEzE22o1zpxpx8VwjTh5rxO59ldi4tRyz5+SjXFYBX4bkJObYWCsuX34Sx48PxT/90/W4c2fUqC8A8MoIgAAAk1C7FXHpXCMG7rXi9o1WbNxaihVrSjF9Rj7yec/nRUnGfZObfc+dexS/+tWtuHjxcTx+3BD/AIBXSgAEAJikGo1uDN5vx29+ORJHDtViz9uV2LyjHMtWlGLKVPsBf4wk8N29OxaXLj1Jb/c9evRBPH5c92AAgNdCAAQAmOSS0eBHD9vxxSdjcfliM/bsq8Sa9eVYvKwQxaKx4O8rOeF348ZI7N9/J775ZjBu3hyx5w8AeK0EQAAA0gg4/LQT50834trlZqxcU4/3PuyNN5YXY9EbBacBn0Nyk2+y2++rr+7Fl1/ejYsXn6QjwAAAr5sACADAv9Ood+PCmUYMDbRj7aZS7H23GgsXF2LmrHz0OBD4HySRb3CwFseOPYjDhwfSr8kpQPEPABgvBEAAAP6d5NbaZrMbd++04v69Vpw9WY+tOyuxa28lPQ04bbpbQhLJnr8HD2px8uTD+Prr+/Hll/fS8AcAMN4IgAAA/FHJaPDAvXbs/2Qsbt9sxdYdldiyoxz9c/NRKk/O44BJIK3V2nHp0uM4cmQwPvvsTjr6OzZmzx8AMD4JgAAA/KeSCDgy0omTx+px4Wwjzp0px5ZtldiwtRT9c/KRL0yeENhsduLixcdx+vTD+PjjW3H58pP05wAAxjMBEACA55bsBzzxTT2uX2nFnduV2LClFKvWlaK3N5fpi0KScd+7d8fS4PfrX9+KU6eGYmionv48AMB4JwACAPDckvHXRqMb9++24pf/OBzfHMzHW+/3xup1xVi7sRylUk/mLgq5f38sLlx4Ep9/fieOHh1MfwwAMJEIgAAA/CCddsTg/Xb86v8difOnC/H4USeWryrGgkXFyGfgnpCRkVbcvj2SXu5x6ND99PRfo2HcFwCYeARAAAB+sGQ/4PBwJ05/24irl1uxfnMpdr1ZjZVrirFg8cR81azX23H79mgcOHAvDh8eSPf9JZd+AABMVAIgAAAvxNhoJ90PePtGK7btLMeOvdVYsKgQ02dMjOWA7XY3Hj2qx4kTQ/HNNwPpqb+HD+vpzwMATGQCIAAAL0SyH7DZ7MadW60YuNeKkycasWV7OXbtq8bCxYXo7Ru/ywEfP26k+/2OH38Q+/ffi4EBe/4AgOwQAAEAeOFarYhb15vxaKgdgwPt2LS1HOs3lWJWfz6KpfETApPR3mvXnsbJkw/jV7+6GVevDqcjwAAAWSIAAgDwUiT7AZ8+6cSh/WNx5ttGbNxaig2by7FpWzlmzs6/1otCms1OXLs2HCdOPIjPPruTXvDx9GnTPxoAkEkCIAAAL1UyGvz0STu+OViLG1ebMTiQXBZSjpWri1Gu5KLnFR8IHBysxfnzj+OLL+6mAfDu3dHodOz5AwCySwAEgAksCSfJXrW58/Nx704r6jURg/EpiYCNejduXm/F/bsjcfybeux8sxLrNpVi9dpy5F/BW2my5+/ixSfx6ae3011/N2+OCH8AwKQgAALABJbL9cT0GfnY+25vVHtzce5UPYYG2+n+NRivGo1uXL/STL9Xr11uxaN3OvHG8mJ6UcjLkOz0u317NL7+eiAOHx6IkycfRK3WiW5X/AMAJgcBEAAmsOQEYLHYE7v3VWLdhmKcOlGOU8frcfJYPR49bKc72GA8Sr43nzzuxDcHx+Li+UasXleKN9+uxIrVpZgz78UsB2y3u3Hnzmh6q++xY4Px7bdDMTJizx8AMPkIgACQAblcxLQZ+di1rxKL3yjE7Dn5OHe6EZfON4wFM64lh/AeP2zHscO1GLjXis3by7HjzUosWlKMavWHLwd88qQRp049jCNHBuPzz++ke/+SIAgAMBkJgACQEclpwFKpJx2lnLugEDv2tOLrr2px+ngtrl1tRbMhfjA+JREw+f68eqkZt2+04uzJRmzaWo4deyuxcFEhSuXnD4Gjo604eXIoHfU9cOB+egKw1XIUFgCY3ARAAMigSqUnlq4oxvQZuXhjWSEOH6jFxXONGHrQjk7b82H8SvYDJt+ryaU2gwPt2LC5FOu3lGPmrHx60vWPSSLf9evDcfLkw/j00ztx7tyjGB1thjV/AAACIABkVnIicObsfLz5TjVWrCnF5QuNOPB5Lc6fbsTTJ21hhHEr+d5M9gPu/+1ous/yL/6mEx/9vC/K/8lJwGTE9x/+4Vp6w++jRw0PEQDg9wiAADAJzJmbj9n91fTG4GRH4Ikj9bh5vRmNugrI+JVcFPJwqJ2OBf+pk6vDw824eXM4nj51yQcAwP+fAAgAk0QyPrl2QylWri7Gxi2l9JKQA1+Mxd3b7Wg1hUAmNidaAQD+OAEQACaRZCy4WOqJNRvKsXhpKT0RePZ0PU4ercfTJ530xBUAAJAtAiAATELJacApU3vivY96Y+vOcqzfWI/jR2px+kQjRkc6TlMBAECGCIAAMInl8t9dFLLvvWrMX1SIufNqcfZUPa5dbkar5fkAAEAWCIAAQJTKPel+wCVLC7FtVyWOHq7FqeP1uHVdCAQAgIlOAAQA/lVvXy7WbizF7Dm5NAZ+c6AWF8834/HDtrFgAACYoARAAODfSS4KmTOvELPnFGLF6lJcONuIr7+qxZULzRh+2nZRCAAATDACIADwByUXhSxYVIhZ/fmY/exz5mQjjn1dizu3WtFsOg4IAAAThQAIAPxRyWnASqUnNm4px/JVxXRP4OkT9Tj8VS2GHrSFQAAAmAAEQADgT+rJRfRNycXGLaWYv7AQ/XPzcfrbRnx7pB71esd+QAAAGMcEQADgueULPTF3fj4++ElvbNhSTk8Enj1Zj2+P1aPZ6NoPCAAA45AACAB8/xeIYk+6H3DGzFwsXV6MWXPycfZkI25ca0ZXBAQAgPH1/u4RAAA/RLIfsLcvF2s3lmLhkkJs39WMbw7W4tujtRgc6ESn3TUaDAAA44AACAD8KEkInDY9F+s3l9Mbg5csK8TX+2tx5WIzRkYcBwQAgNdNAAQAXoh8PmLh4kLMnZePFatKcel8Iw7tH4url1sxNtYxGgwAAK+JAAgAvNiXi2JPLF1RTC8LSW4LTnYDHvh8LB4OtaPd9nwAAOCVv6N7BADAi/a7/YCbt1di+epSrFxbitMn6nH4QC2Gn3bSG4MBAIBXQwAEAF6aXC5i2rRcbNtZjoWLCjF/YSGOHa7FmW8b0XZJCAAAvBICIADw8l84ij3pTcHJSPDaDaU4e7IeRw/X48KZRrRa3ejYDwgAAC/vfdwjAABelVK5J95YXozZc/Ixf1Eh+p99PXe6EXdvtzwcAAB4SQRAAOCVSvYDTpmai03bKrHojUJcv9JKbwu+cLYRQ4Mdo8EAAPCCCYAAwGuRz0f0zynE9On5mDU7FyvXlOLgF2Nx/UozxsYUQAAAeFEEQADgtSqWemLpilLMW1iI5atK6V7ALz8bjXt32lGrdaJrPyAAAPwoAiAA8NolY8HVai5WrM7FnHn56J+Xi5PHGvH1V2Mx/FQEBACAH0MABADGjVwuYvqMXGzfXY0Vq0qxYXMpvj1aj6OHaulYcLNpNBgAAL4vARAAGH8vKM/eUJKbgqdOq8TCxYX0c/xIPU6fqHs4AADwfd+vPQIAYLwqlXti8dJizJ6bj/Wby3H061oc/6YWt663otHsGg0GAIDnIAACAONash+wtzcXS1fkYsbMXCxfVUxvC05Gg588VgABAOBPEQABgAkh2Q84c3Y+pk7Px6Ilhdi+pxoHPhuLyxca8fhRO9ptzwgAAP4QARAAmFgvL8/eXubOL8T0GfmYOy8fZ0/W47cfj8bdO63oiIAAAPAf36E9AgBgIipXemLZymLMm59Pv5451YjDX47F4EAnamOd6LowGAAAUgIgADBhpfsBp+RizfpSzF9UiMVvFOLooXocPjAW9VpXBAQAgBAAAYAMyBd6YuasfGzbVYnlq0qxYUspvTH43KlGjI52o9VUAgEAmLwEQAAgM0qlnpgzNx9T9lZj8dJiLF5SiyOHanHtStPDAQBg0hIAAYDMqfb2xNLlxZjdn48NW8vxzYGxOHuqEbdvttLTgJ2OZwQAwOQhAAIAmZTLRUybnovevmLMmZePdZua8dv/NRoXztZjZNhIMAAAk4cACABk+2Wn0JOeBJw2LRcLFhbiysVGfPHbsbh2uRmjI51otz0jAAAy/k7sEQAAk0Gx1BMLFhdiVn8+vTH4xJF6fPqr0RgabLstGACATBMAAYBJo6cnolLtSW8Knje/EKvXl+LksXp8c6AWDx+0o15XAgEAyB4BEACYdJL9gFOm5WLthlIsWlx49inGgS/G4sy39Wg2RUAAALJFAAQAJq1isSdmzs7H7rcrsWpdMT0NeOxwLS6ea0a91nFbMAAAmSAAAgCTXqXSE/MXFmLqtFysWluKzz8ZjaOHaul+QAAAmOgEQACA+G4/4JSpuejty8Ws/imx561qfPnpaPpzPbkeDwgAgAlLAAQA+D3JfsDpM/LRNyUX/XOmRrvdjWpVAAQAYOISAAEA/tBLUqEn+ufmo+tOEAAAJvq7rUcAAPDH9Tj8BwDABJfzCAAAAAAguwRAAAAAAMgwARAA4EcqlXuiry+X7g2ELL6rxkwAACAASURBVElG4MvlfEybVvIwAGACEwABAH6kN5YXY+fecixcXIhSqcfeQLLxfxRyPdHbW4gNG2bGT3+6JP0xADAxuQQEAOBHmjEzH/vercbyVaU4frgWB7+oxeBAK2pjXbcIM+Ekoa+vrxgrV06Lt9+eF+++uyCmTy8J2wAwgQmAAAA/UhJGKtVcLFnaE7Nm98WCRYU4/FUtTp2ox8hIJ9otz4iJ8X1cKORi9uxK7NzZH//1vy6NefN6Y8YM478AMNEJgAAAL0g+3xPTpvfE9j2VWLepHMcO1+LooVpcPN+M4SedaLUcB2T8ScJfsZiLuXOr6bjvz3/+RrzxxpQ0/Bn7BYBsEAABAF6wYrEnitN7YtfeSqxaU4qvPh+Lo1/X4s6tVrSa3eh0PCPGh+/GfQuxdOnU+Mu/fCMNgPPn96ZB0MgvAGSHAAgA8JL09uWi2puLn/9NX+zaV4kvPx2LU8fqcfdOKxp1+wF5fZLwN3VqMRYu7IuPPloYe/bMTU8Alkp54Q8AMkgABAB4iZKYkoTAxW/k4qd/lYtVa4rx+W/G4uqlZjx53I522zPi1SqX8+mlHm+9NS/27ZsXa9fOSGOgcV8AyC4BEADgFcjnI2b352P6jGosXVGMi+easf+3Y3HjWjOePBICefmS030zZ5Zi5845sXfvvNiyZVZ622+hIPwBQNYJgAAAr/Ll69nbV//cQkydlou58wtx8lgtDn5Ri4H7xoJ5OX6352/Fimnpib93312QhsBKpWDcFwAmyzuoRwAA8GrlcpHuBlyxOheLlxZi7cZSHDlYixNH6vFgoB31ugrIi/g+64lqNR+LF09Jx33/7M8WRn9/NSoVe/4AYLIRAAEAfqR6rRuNRjdKpZ4olXueO64kIbBS6YmVa0qxYGEh3lhWjIP7a3HlYiNGhjvGgvlBku+/QiEX/f2V9Fbfn/98SSxbNjVmzChHPq/8AcBkJAACAPxIZ07W4/jhenqab92mcvTPzacx8HlDYBoOZ+Vj73vV2LyjHEcP1eLQl7W4drkZIyOd6AiBPKck8CXhb/Xq6fFXf7U01qyZHtOmlYQ/AJjkBEAAgB+p2ejGrRut+PZoPS6cbcRb71djybJiTJuWj/z3eNsqFnti+ox87H6rGitWl+KLT0bj1PF63LvbTv8O+wH5Y5LYPGVKKebOrcSf//ni2LNnTixc2Jfe+GvcFwAQAAEAXoBmqxv37rbiwWArjYDrNpbj3Q+rsXBJMfqm5NJbgJ9HGnKm5tLf87/NnxZvvd+Mj38xmv6ZyX7AJATC70su+Jgzpxoffrgo3n57fixc2Cv8AQD/jgAIAPACtVoRgwPtOHyg9uxrKzZtq8T23eWYM7cQ5crzF5kk3lSqPbFkaTH+5v+YEudPN2P/J6PpScOnT9r2AxKlUi6mTy/F1q2z0ws+1q2bGdOmFdP9fwAAv08ABAB4wZKdfaMjnTh7shEXzzbTMd6971Rjw5ZSzJj13X7A55Fe5lDsiXnzC9HfX4j1m4px8tmf9dmvxuLOrVb6d3Q6nveke4Ev5GLq1GJs3DgzHffdvn129PUV7fkDAP74+4NHAADwciRxLrkd+OLZRty/04orFyuxc28llq8qRm/f848FJ5JdgrP687HnrWr0zynEka9rcfJoPYYG2+nfYT9g9uVyPVGp5GPp0qmxbdvs+MlPFsW8eb1RrRaM+wIA/ykBEADgJavXuzFwvx2f/Xo0jhwai7fe741tu8rxxvJiVHtzkXvOic0kAPX29cSGLeVYu6EUZ3Y24uD+sTjzbT0eDXWi2VQBsyiJe8lOv+RSjyT8/fVfL43583ujVLLnDwB4PgIgAMAr0mp148njbnz+m+8u9Xj7g2qs3ViOufPyUSo/f8lJgmGu1PPs95ZiydJCHNxfiBPf1OPalWYMPzUWnKmX9UIu5sypxIoV0+Iv/mJJrF49PWbPLtvzBwB8v3cKjwAA4NVJ4tzTJ50YftqIG1ebsXx1KT78WW86Fjx7Tj4KhecPgeVyT3oy7Cf/ZUq8/UFv/Pbj0ThysBa3b7aiNiYETmTJac9Zs8qxeHFf/M3fLIvt2/tj6tTSc58WBQD4fQIgAMBrkOzsS0aDL51rxOOhdnoScN/71Vi0pBBTpua+V+hJ9gNOmZKL9z6sxopVxTjw+Vh6wjAZO27aDzjhTJtWiv7+Srz77vzYs2duuvOvWs2LfwDADyYAAgC8JkmYSy7wuH2rFXfvtOLk8Vrs3leJN9+txvwFyX7Anufe8daTi5g+Mx/TZuRjxepiXDrfjE/+12hcvdRMLwpJxo8Z33p7CzF9einef39hfPDBgli+fGq65w8A4McSAAEAxoFkXHdosBOf/mos7txqxfY91diwuRQzZ+ejVHr+seAkGFaquVi9rhQzZubizKlGfL0/GQtuxpMnnegaCx5/L+SFXEyfXoxt2/pj9+456bjvjBnlKBYd+QMAXtD7hkcAADA+tNvdGBnuxrHD9Tj+TT127a3E7n3VWL3+u5iXf879gOmtsZWeWLy0GAuXFGPT1nIc+nIsvv6yFgP32jE22jEWPA4ke/6mTi2mF3y8//6C+OCDhen4r5t9AYAXTQAEABhnkjiXfE4crcflC83Y+241tuwop0Gvb8r32w+Y/NrkluEPf9YXS579/qNf1+LsyUY6FpyMH/Pqpac0K4X0go/ktF8y7rt48ZTo6yuIfwDASyEAAgCMU7Wx7rNPO37x98Ox/9Ox+LOf9ca2nZVYsKiQnvB73liUnBycOq0nduypxJYdlTj29Vh8+ezPu3iuEU8ed6Ld9qxfheTfKxnrXbCgN9avnxn/7b8tS0//GfUFAF42ARAAYJzrtCOePGrHb/5pNC6fb8S+93pj+cpi9M/NR7H0/Y6MFfIRm7aVY9GSYhzcPxYnj9fjxrVW1EY76R5CXo5k3De52XfZsqnxk58sjo0bZ8bs2ZV0/x8AwMsmAAIATADJKb1HD9tx7HA7Lp5rxpr1pXjvo2osXfHdRSH5570s9l8uCVmwOBd//b9PjXc+6I1f/uNwnDvdiNs3WulYsP2AL9bMmeWYP783fvrTxfHOO/PTEAgA8CoJgAAAE8zoSCdOHa/Hg8F2rN9Uij1vV9Ox4GQ/4PfZIZfLR8zsz8d/+e9TYvP2ZnoD8Y2rzRi414pWy3P+sXp7CzFnTiX27ZsXe/fOS8d9k58DAHjVvIEAAEwwyahuvd6Na5eb6efsqUbs2ldJ9wPOX/jdfsDnlZwcnDkrn35WryunI8GffjwaN681Y+hB22nAH6BUysWsWZXYtas/Pvrou3Ffe/4AgNdJAAQAmOBuXm/F4P2RuHG1FTv3VGLl2lLM6s9FofD99gNWqj2xeXs5vTX42OFafHOwFgP32jEy3BECn0M+3xNTp5Zi3brpsXv33Ni7d27091ft+QMAXjsBEABggms1uzH87HNo/1gcP1xLb/tNxoJXrCnGtOnPvx8wGR+uVHpi6YpiLF5ajC07K3H4q7E4+nU9HQtObiXmDz+3vr5irF49PbZv74+f/WxxzJ1b9WAAgHFDAAQAyIjklF4yGnz0cD2uXWnG3neqsW5zOZYuL6QXf3yf/YBJNFyytBCzZk959rUYx5/9mWdP1+Pxw040m0JgInmepVI+Fi3qi/XrZ6SXfCxbNi36+rxiAwDji7cTAIAMSSLg2Ggnbj37/P3fDseB/WPx0V/0xep1pVi4uBClUk96E/BzvSgWemL6jJ7Y+241tu4sx4HPa3HiSD0unmvEkyft6LQn8Ut0IRfz51dj3boZ8fOfv5F+dcEHADBu3108AgCAbGq1u3H3djv+8e+GY9W6YnoicMmyYsyZV3juseDfSU4QvvlOJZavKqajxmdP1ePW9XaM1TrR7UyeZ5rL9cSsWeVYsqQv3nlnQTrym5wALBZ7fMMBAOOWAAgAkFXdiHarm97me2h/O86ebMTGreV498PeWLy0ENNn5CP3nPdTJOOuvX25WLYyFwuXFOLGtUp89dlYnD/diFvXW+lYcNYvCpkxoxSLF0+Jd96ZH2++OTeWLJmSXvwBADDeCYAAAJPE8NNOHP26FoMD7diyo/zsU4n5C/JR7f1++wGT025Llxdj5qx8rFrTiINfjMWNa624d6eVyedWqeSjv7+S3uy7Z8+cWL9+ZrrnT/wDACYKARAAYJLodCK9yffCmUZcvtCIk8fq6Y3BSQicMy8f5fLzBa0kFib7AWfNzqe3Da/dWEr/rC8+GYs7N1vxcCgbywGTwJeEv23b+tMTf0kAnDLF6zMAMPF4gwEAmITarYhL55tx91Yr/azfXI41G0oxY2b+e+0HTEaIk1HiXXurMX9hIY4drsXxb+oxcK8doyMTczlgEjinTSvFypXTY/v22fHeewti3rxqeuMvAMBEJAACAExSrWY3Hj/qxm8/Ho2vv6rFvveq6Wjw8lWlmDot99z7AZNfV+3tSW8aXrqiGJu3V+LIoVocP1yLwfvtaDQmznLA5CbflSunxY4d/fHRR4tiwYK+9LQjAMBEJgACAExyyeUdI8Od+PLTsbh6uRm79lVi7bpSLF5ajFK553vvB1y1tpiOFM999jl9ohEXzzXi8aN2OoI8bl+KCz2xcGFfrFs3Mz76aGGsXj09PQVozx8AkAUCIAAA/xoBk/2A1y8301OAe9+txso1xVi0pBCF4vOFwN/tB5zdn4+Pft4XO96sxNdfjsWp4404/+zPHh3tRHcchcBcricd702C35//+eLYsmVWTJ9e8g0BAGSKAAgAwL+TjOxeOt+IocF2rNlQjN1vVdNbf2f157/XacDk1yY7Bd/7qDdWrinF/t+OxZWLjbh+pRmt1nfR8XWaMaMUS5ZMiX375sXOnXNi2bKp6QlGAICsEQABAPh3kjDXbHbj/r1WDA600pN7W7ZXYue+SixZWkgv/Xhe3+0HzMWqtaVYsqwYVy814/Nfj6aB8c6tVrRfw4XByZ6/JPy988789GbfVaumRj6f8w8PAGSWAAgAwB+V7O1LLvL48rOxuH2rFVu2l2Pzs8+8BYUoV77fablSqSdWrSnGzFlT4+SxWhw5WI8b15ox9ODVVMBCIRf9/ZXYunV2vPnm3Ni5sz/6+or2/AEAmScAAgDwn0oi4OhIJ06fqKcXepz+thHbdpVj07ZyetnH896Sm4wE55/92rnz8/HBT/vS33/scD2+OViLm9eb8eTRy1kOmAS+GTPKsW3b7Ni1a07s3TsvHf8FAJgsBEAAAJ5bo96NM9/W487NVty7044NW0qxZl0peqfk0nHf55X82v65hXj7g1wsXFKIE0dqcfJoIx07rtde3HLAZNx3zZoZsWnTzPjgg4Xp6G+xaNwXAJhcBEAAAL6XZD/gwP1WfPyL4Th6KB9vvluNNetLsX5TOUrlnue+KCSJgH1TcrFpazlWri7Fhk31OH6kHieP1ePBQDv9e36oSiUfy5dPjc2bZ6W3+353wYfwBwBMTgIgAAA/SKcdMTjQjl//02hcONOIR0OdWLaqGEuWJnv1vt+fVan2xIat5Zi/qJCOCJ892UjHjZ8+/X5jwcm479y51Vi7dka8996CWL9+RsyZU7XnDwCY1ARAAAB+sN/tBzx7qhHXLjdj9bpS7H67mo4FJ6O9zys5NZhcEjJ/YSF+8pdTYtuuVrob8NTxehoH/9Spwt+Fv3375qWfLVtmx4IFvf6BAABCAAQA4AWp1brpBSH37rZj685y7HyzkkbAGTO/33HAwrM31OSW4fc+6o03lhWj0ehG/k+8tU6bVop33lkQ06cXY+XKaVEq5f2DAAD8i57uMx4DAMAP9/WXY/GLvx+Ji2cbHsa/SCJecppv49bvQuAby4vpvj8AAF7Du5lHAADAi9ZqRdy+2YqhB524e6cdW7aXY8uOcszqz6ejvgAAvDoCIAAAL8Xv9gMeP1xLLwk5f7oR6zeXYsuOShoC86Z0AQBeCQEQAICXLgmBR76uxY1rzXgw2I71m8qxfHUx+npz0WMyGADgpRIAAQB4JZqNbjoWPPgPI3HscC227qzE5m3lWLuh/Ccv+QAA4IfzqgUAwCuV3Op781orHg2Nxp2bz74+7MTSFcVYtMSrKQDAy+AtCwCAV67bjXj6pBNHDtXi0vlGrFxbij1vVWPVs69z51sOCADwIgmAAAC8NkkITE4AHv+mFgP32rF5ezm2767EojcKMWWK5YAAAC+CAAgAwGvXakZcv9KMu7dacebbenpJyJvvVGPhkkKUyz0eEADAjyAAAgAwbiT7AS9faKanAZOTgRs2l2LD1nLMmp2PnAOBAAA/iNcoAADGnWQ/4Fefjcbf/l9P4+DnY+kNwgAA/DACIAAA41Knk+wHbMedW630fwMA8MMIgAAAAACQYQIgAAAAAGSYAAgAAAAAGSYAAgAAAECGCYAAAAAAkGECIAAAAABkmAAIAAAAABkmAAIAAABAhgmAAAAAAJBhAiAAAAAAZJgACAAAAAAZJgACAAAAQIYJgAAAAACQYQIgAAAAAGSYAAgAAAAAGSYAAgAAAECGCYAAAAAAkGECIAAAAABkmAAIAAAAABkmAAIAAABAhgmAAAAAAJBhAiAAAAAAZJgACAAAAAAZJgACAAAAQIYJgAAAAACQYQIgAAAAAGSYAAgAAAAAGSYAAgAAAECGCYAAAAAAkGECIAAAAABkmAAIAAAAABkmAAIAAABAhgmAAAAAAJBhAiAAAAAAZJgACAAAAAAZJgACAAAA8P+1d+fBdpb3fcAfSVcbWhAIEEhIILHv+74GsDE7GLPZ2VqcxK3T1u00U3cm6UzaZtJ/kqZpEjvGY6ep69YGu/USbMy+GQNikYTYF4lNIAFi1S5Rfx/8Ktfy1XLPPXc7+nxmztxF95zz7rrv9/6e50cHEwACAAAAQAcTAAIAAABABxMAAgAAAEAHEwACAAAAQAcTAAIAAABABxMAAgAAAEAHEwACAAAAQAcTAAIAAABABxMAAgAAAEAHEwACAAAAQAcTAAIAAABABxMAAgAAAEAHEwACAPTRmLEjy8SJI8vo0SNsDAAAhhwBIABAH+01p6uceNr4Mmt2Vxk7bkQZIQcEAGAI6bIJAAD6Zscpo8pxJ40rs/buKo/OXV3uv3dlWfb6+rJyxYby4Ye2DwAAg0sACADQR6n4GzN2RJk+s6vsuNOoMnPvrvLgT1eV+Y+sKu+/92FZt1YKCADA4BEAAgC0yahRI8rkHUeUQ48cW/Y9YEw5/OixZe7PVpWnH19T3nt3Q1krCAQAYBAIAAEA2v0LVteIMnHSiHL40ePKrNmjy0M/W1Ueun9VeWnx2rJ2zYdlwwbbCACAAfz91CYAAOgf43cY8fNHVzn7/AnlyGPHlXvvXFEWzltdlryyrqxe9aH5AQEAGBC6AAMA9LPx40eUPfbsKh+7YEK5/NOTymFHjS07TR1VuvwpFgCAAeDXTgCAATBqVCk7Tx1VOwbvvc+Y8tTja8rdt64oLy5aW95Zvr6sX28bAQDQPwSAAAADKEHg5B1HlsOPGlum7jKqLJy3qtx/z6qybOm6sirDgs0PCABAmwkAAQAG2IgRpYwbP6LM3nd0mblXVznw0LFl3sOryiP3Jwhcb35AAADaSgAIADBIRo4sZczYEWX2PqPLtD26yowZXeXhB1aVZ55cW955Z31Zv842AgCg7wSAAACDbPSYEWXHnz+OP2V8OfSoceWRBzMseGVZ9Nza8sEHG8oG8wMCANAHAkAAgKHyi9noEWXS5BHl2BPH1arAe+9YWR6bt7osfW2dYcEAALT+e6ZNAAAwdGR+wAkTR5YdJowsl17dVU4+c3y54ycryhMLVpdlr68va9ZIAQEA6J2RNgEAwNBTG4WMG1FmzOwq5182sVx0xaRywMFjyk47j6qdhAEAYFupAAQAGKISAnZ1jSi77jaqTJ06vhx4yJiycN7qctetK8qrL60rH7y/oWzYYDsBALBlAkAAgGFg5KhSq/+OPWlc2X2PrjL3ZyvLgkdWlzeWri+rV5sfEACAzRMAAgAMEyNHlrLDDiPLfgeNKfvsP6Ycc+Lq8tM0Cnl0TVn+1vqydq0UEACAXyUABAAYZjI0eNTPf4ubve+YMm2PrjJj5qoy/5HVZdFza8t7760vG9bbRgAA/CMBIADAMDVmzIifP0aVs8+fUE75tfHljptXlIcfWFVeeXFdWbnC/IAAAHxEAAgAMMylK/AOE0aW087aoex/0Jhy7x0ryjNPri2vL1lX1pgfEABguycABADoABkWPHnHkT9/jCl7zR5dXnxhXfnJP7xfnn9mbXnzjfVlnfkBAQC2WyNtAgCAzjJ6zIiy15yucsmVE8t5l04sBxw0puw0dVRtIgIAwPZHBSAAQIdJNWBCwBkzR5fpe44uhx05tjzy4Ko6NPj1Jevr/ICGBQMAbD8EgAAAHSxh4NRdR5ZTzhxfdtt9VHl07uryxILV5c1l68uaNVJAAIDtgQAQAKDDjRo1okycNKIcddy4cthR48q8uavKz+5eWZ59ek1Z/taGsn6dIBAAoJMJAAEAtqdf/kaVcsiRY8uMWV3lkQdWlXkPrS4vLlpbPnh/Q9mwwfYBAOjI3wFtAgCA7ciIUsaNG1F2n95Vzr1oYjn+lPHljptXlIXzV5cXX1hb1qz+0PyAAAAdRgAIALCdGjmqlCk7jyrnnD+h7H/wmHL3LSvK4hfWlqWvrSvr1tk+AACdQgAIALAdGzWqlB2njKydgvfdf0x5fMHqcvetK8pLi9eVN5auMywYAKADCAABAKjGjR9RDj1ibJm2+6jy2KOry4P3rSqvvbquvPfuBsOCAQCGMQEgAADViBGljB03ouy51+gyfebocvjR48rP7llZm4W8/tq6snKFFBAAYDgSAAIA8CtGjixl2vSP5gfcc2ZXefTh1eXJx1aXt9/aUNauFQQCAAwnAkAAAHo0atSIMnnHEeX4U8eXw44eWx746aqy8NHV5cnH15R3315f1q+3jQAAhgMBIAAAWzVu/Mhywinjy74HjCm73bWyPPHY6vLy4nVl1coNGoUAAAxxAkAAALYq8wOmSciMmV3lkismlmNO+Gh+wKcWrq4dg9eu+VCjEACAIUoACABA736BHD2izNy7q0zZeUKZs9/ocv89K8tLi9aVZa+vMywYAGAo/v5mEwAA0BupBuzqGlF22nlUOe6k8eWAg8eUx+evKfffvbIsemFteesNKSAAwFAiAAQAoGXpFjx5x1Hl6OPHld33GFUembu6zHtoVXn9tfVlxfsmBwQAGAoEgAAA9ElCwMwPOGf/MWXm3qPLYUeNLY/OXVXmzV1dXluyrqxZbXJAAIDBJAAEAKBtRo8eUecF3G33UWWPGV1l/kOry7NPrynL31xvfkAAgEEiAAQAoH1+MT/glJ1GlVN/bYePqgEf/GhY8BML15SVH2woG4wMBgAYUAJAAAD6RZqF7DhlVDnxtPFl1uyusvMuK8vzz64ti59fU9atLeVDI4MBAAaEABAAgH6TELDOD7jfmLLnrNG1S/BP71hZnnt6TXlp0VrDggEABoAAEACAATFm7Iiyz36jy9Spo8rjC1aXB3+6qrz4wtry5htSQACA/iQABABgwIwaNaJM3XVUOfXMHcoBh4wtCx5eVeb+bFV5efHa8vZykwMCAPQHASAAAANuxMhSdtl1VDnpjPFl9xld5bFHVpf5D68uS19bV1atMjkgAEA7CQABABgUI0eWssMOI8shh48t++w3phz8848LHl1dHn1wVXlj6fqydq0gEACgHQSAAAAMunHjRtQAcPqeXWXqLqPKk4+tLs88uaa8+65hwQAAfTXiw5+zGQAAGCrWrSvlzaXrysMPrC6PL1hVpu85ulx29aTaTRgAgN4TAAIAMOTkN9QP3t9QuwSvXVvKIYePKV2jBYAAAK0QAAIAAABABxtpEwAAAABA5xIAAgAAAEAHEwACAAAAQAcTAAIAAABABxMAAgAAAEAHEwACAAAAQAcTAAIAAABABxMAAgAAAEAHEwACAAAAQAcTAAIAAABABxMAAgAAAEAHEwACAAAAQAcTAAIAAABABxMAAgAAAEAHEwACAAAAQAcTAAIAAABABxMAAgAAAEAHEwACAAAAQAcTAAIAAABABxMAAgAAAEAHEwACAAAAQAcTAAIAAABABxMAAgAAAEAHEwACAAAAQAcTAAIAAABAB+uyCQBoxdq1a8vq1avLhg0b6tcjRowo48aNK6NHj+7x59evX19Wrly58edHjhxZf76ra3D+K1q+fHl59dVX63LssssuZcKECWXMmDG9Wp41a9aUVatWbfw66z527Nj6mpuue7bXunXrNq5/d9l2eU4eeY1Ro0bV7wEAALSDABCAXkug9eijj5YbbrihLFu2rH4vIdqnPvWpcvTRR/cYor3yyivlS1/6Unn99dfr17vvvnu58sory+GHH/4rgdlAeOKJJ8o3v/nNGgLuuOOO5Zhjjikf+9jHygEHHLDNr3HbbbeVb3/72/XzrMOJJ55Yt8GUKVM2/kwCv5deeqnce++95cknn6zrnyCwkaAv4eO0adPKbrvtVk499dQyZ86cGiQCAAC0gwAQgF5LqPXCCy+U66+/vn6Mvffeu4ZoRx55ZI/PefPNN2tg+Oyzz9avE7SddNJJNQAcDK+99loN5RJkJrx78cUX6zpsawD44Ycflscee6x8/etfr1+nai8Vgeeff34NAPPvH3zwQfnWt75VfvCDH5QFCxaUN954o7z//vu/UgWYysOJEyfWx1/91V+V/fbbz0EGAAC0jQAQgO1eArkM5c2Q5na+5j333FOuu+66Mm/evF8aKrypBIdvvfXWxnBwsIZFAwAAnckdBgC0KHMY7rzzzvXzVBGmgq8ZzpzqwFT/PfLIIzXgi8zvt9NOO9WhvpMmTarfy7yIqY5MtWCGRWc4MgAAQDsJAAGguSTXrgAAIABJREFUBZm775xzzqlzHzZf77XXXhsDvKeeeqrO+deEfxkifMQRR5Rf//VfL/vvv//GOf7SHCThX0LADBvOMGQAAIB2EgACMOgy7PXdd9+tnXlffvnl+vmSJUs2/vsOO+xQ5+ZLhdzUqVNreNa9S26e31TSJXhLY5IVK1bUf2uq9NJkI4/p06f32HQk4VvCuPfee68+shxpXJLXHD9+fDnwwAPLvvvu+0sVeqnimzlzZv08y5NlS9AXWf6mQUrkfa+66qpy7bXX1krBTWX4cd4/y9t9mbJeWZ7FixfX+RbzeaRxyK677loOOuigOudglrH7emVbLlq0aON22GefferPZShy5iJcunRpOeSQQ+rz8tr5Xt4vP7PnnnvWZcn65z3zWpGwM3M25n2znDoVAwDA8CAABGDQJXz62te+VubOnVtDs4RUTdAVGTqb8CkVdldffXU57bTTanDVePvtt8v3v//9cuutt5bnnnuuVtQlwGqem59NYJamI//6X//rOgx3UwnaUrGXjr1p2NEEkQnQ8hoJ/6644opy+eWX168Tlt19993ly1/+cn1+wrdUBP7u7/5uXdZU/jXLEDNmzKiVfz2Ff5FQs3vn37x+XuNHP/pRuemmm2rzlARxzTyFaRySdUqId8opp5SLLrpo43DkeOaZZ8pf//Vf13Avy5bgMSHmzTffXB5++OG6PAkls4zf+c53yu23317fL8t47rnnlgceeKAOY07X4mybyLKnivHSSy8tZ599dl0GAABg6BMAAtA269atq4FST5Vh+beEWj1JqDV//vzyk5/85JeCv02l6iwB32c/+9nymc98pgZbCf9++MMflj/+4z8ur7766sYht5vKMiX4S2jW0/LlddPRN8uSoG3T10llYRp1JIRMkBgJCe+88876eSr/Ujm3uffPvH89BY+bky7F6bKcYPTpp5/eGMJtKl2Mb7nllhr4/dN/+k/L7Nmz6/plWROoPv744/XrhJkJLlPRl387+OCDy2//9m/X72Xd0rAkYWfCwaxTgr88Z9OOxQkFFy5cWCZPnly7PnevWAQAAIYmASAAbZHgLwFcwqSESpvKcNTuFXHd5edTvdYMn92cVAY++OCDNUxLxVtCqARlqcTL629JXjtDiTcXWDVDfzcnwWDCtARtJ554Yq+3T6rletPdNyFcmogkbEt4ujkJ7RLqffe7363VgBkmnfXsLsFrgrts/ybQy7r29LoJ/fLYnFRX5rVSbbnffvsJAAEAYBgQAALQFhnGm+GwCa16mmMvwVGqynqSIC9DazNENZ9nCG0TlqUa78Ybbyzf+MY3Ns71l8Ar89Olmi8VgM8///zG19pjjz1qOJjXayTQytDizJe3OVnmhHR5/1mzZtUhv6nwy1DYpqovlXOZE7C/rV+/vgZsqYpsQros+1lnnVXOOOOMGrqlUu973/vexmAvQ5d/8IMf1OrEnhqJNEOHs80StmYbZS6/TaVaMEN9jz/++HLyySeXww47rK7/3/3d35X77ruv7sc8UjGYKsyEsQAAwNAmAASgLRIwdQ/ieiOB1nHHHVfDpszX172hRar+8nXm+GuGpKZ6Le81Z86cGpZ1ryxMk46jjz66fPzjH9/4vQRYCa22VK2Whh5HHnlk+dSnPlUbXSQkS7iWCrsMs837JozbUjVeO+R9EjImfMwyNy655JJyzTXX1GYoCUczhDfrnZ9LuJnPs026P2dT2abnnXdeueCCC2oVY5qiJLjtLgHh6aefXudKTCCbMDb7Nk1DUgGZ1882yPP6e1sAAADtIQAEoC2aCrrNDXNNsJUwb9M55Zrnpuos4VPCuk1/LiFUKs0SPuX7TbfefJ6Kte5Dh9N9N5VxCQJTNZdmF2mukdfvaWhyI2FiGoykqi0/m9dNKJimGAkAB0rWKVWNWdfucyamIi+hX7N908Aj1YAZ+psAMD+boK6n7Rup9kuod9lll9UKx4SqPc2FmG2Vob1HHXXULzUVydDi7k0/ErwCAADDgwAQgLbIvHMJjWbOnNnjXH4ZPnvXXXdtcZ69DO9N1V3mEuz+cy+++GL9t56aiOR9p06duvHrVAlmeGq63yb0SsXcscceW4fPZmjs5uYZTCCWn0/o10hgmNCrp6CsPyVc2zTIS/Vi93A165FgtHvn4C3J+qV7cgLNnoZod5fXHuh1BgAA+o8AEIC2mDJlSrniiivKueee+0uVYo00s8ijpwAw1W6Z8y7zBy5YsKCGfd2Hl6YqMENOe6o6S+XelVdeWZ588skaHL7//vv10XS/TSfcH/3oR7VSLsN7f/M3f3OLlYDDSW+CuoR+CQu3Fv4BAACdRwAIQHv+Q+nqqsN0U2XXUwCYZh6bGx6cYbt/8Rd/URtbvPPOO71631TsnXPOOfU9b7nllvp47rnnaoCYisGmaUWGySYAO/PMM3tskgEAANCx92s2AQCDKfP9PfXUU+X++++vlX+paEs1YYar7rnnnjU0TPXfT37ykxoibloFmJ/PXHVpbpFGIp/97Gdr2JcwMWHgHXfcUcPAvM+iRYtqo4wMUx5oee8EnQklWxlem/Xu/tx8nkrH7g1QAAAAeiIABGBQJcBK04sM802oleG56Qb8p3/6p3V+vwxZfeKJJ8ojjzxSqwM313wi1X1p+JFHfiYdfRP0Pf300+WVV16p30sQmPcZDOnWm+XIMrQyBDlDp9Pko+lknNfJkOeEpgAAAFsiAARgSEmFW8K8NPbI5wm9UvmX8K+nDrf5/gsvvFD/LU08MhQ4oWHCxLxO9+fk+wM1B94+++xTA8g0MIk333yzfO1rX6vDkQ888MDalCOynGmQkirHrOvFF19chyhnXTLHXxN43nDDDbWz8eGHH17XYf78+eUb3/hGrSps1i3/3tf5DRPIZpmfeeaZjZ1/s41TSdkMz85+GYzmKAAAQGsEgAAMqgRWkydP3vh1KtvSCfiLX/xi/bcEZ6niy7DengLA119/vXzzm9+sw30zFHjWrFm1Si6vk+G+3Z+XQHDixIkDElylijEdd++99976dYK1NCb57//9v9d5C7t3I05VYv59p512Kscff3ztXJznJgRdunRp/Zk0SUmjk3w/65aQLsOKmwrABHKHHnroL23LViSgvP3228uzzz5bJkyYUEPAVGimOUs6LDfbMcvYVCMCAABDmwAQgEGVMGmvvfYq++67b63kSxVcQr3rr7++BnUJu/LoHph1l8q5Bx54oA4Rzs8klGoqABOq5fXyOgn+Dj744HLIIYdsthlJOyWI/OQnP1lDu1TrrVixogZ9GbbbkyxjqvlSDZhlT0flDBn+4Q9/WIf/pvoujzQ4SaDZNDnJ8zJU+pRTTilXXXVVrRzsi1QcZpvm0VRjNvsgso332GOPcuGFF9a5GgEAgKFvpE0AQCsSDiUM6v7YUmXd5n4+jwyVvfbaa2u1WTNEN5VtCc0SdqW7cMK7hHubvlcaYSQwbALCPK/p/JvALa+X6rjMCXjuuefW0Kp5321Z/jx/cz+z6Wt0H16c9zz99NPLF77whdqlOAFk8zN5NMvQfJ1H1jUhXxqWZH0/97nP1eemsrH5maxTwrjmuanSO+mkk8rnP//5uo7NEOCe1m+bfznotowJUBMKNt/bZZddyiWXXFLOOOOM+t4AAMAwuH/7MOUDANALCaoyBDWddlOdFgm4jjnmmFr51tM8e6lsu/POOzcOI818dccee2zt9JvXS8XZgw8+WO6+++46tDWh0+zZs2tlYObMS4C1ePHiWtWXIbQJu/JeCfpSZZdOwqmuSxVdhg1n3sAMh91vv/3qnHonnHBCfa+8b2T5582bV5crmpAx1YiNBJBZxwwlbv67zDKnijAWLlxY5s6d+9F/qCNGlDlz5pSjjz66VuQ1snwZhpwhtGlmkmYg+TrbLWHd9OnTa5CWdUkDk3QyzvfyelnXVAFmOG6qHDMcOF8n5Mx7pRIvy5zhuFnHBKRNQJltke2Z4bvN/klolwCvu7zeH/7hH5Zvf/vbdX3zcyeeeGIdTpz9mH9vvp9lPOuss+p7ZhkHaj5FAACgbwSAALQkVWipVGv+G2mGi26uCUUCvfx8Mx9fwqP8fDMcN6+Tf09wl8ApXydISziWR75uOgU375Xn5vO8dp6T5+fRzKmXf09wlYYbCQ27B1ZZ/lS3NcuTgDFVe92HBzfL1Ax/jbxvfi7yPnmNRp7bPYTrLqFdqhXzenlOXjPL01Q1Zl3zeV6/+3I2653KwDwvz8/6Nj+f9WuGPW+6f7qvX5Yp22HTSsBNA8BUG15zzTW1ojDbrHm/rFuen3/PMmoAAgAAw4c5AAFo7T+QX4Rr2yrB05aGjDYBVdMdtydN8NbTayesyqM3y7+1uQCbZdrS8mxumTa1tXXb0jIkcEuFYm/3TytzHeb9EihmOHaakgAAAMOfsTsAAAAA0MEEgAAAAADQwQSAAMDGrsGZw7E3HYMBAIChzxyAALA9/yLQ1VWmTZtWjjjiiDrnX7omn3baaXUeQAAAoDPoAgwA27F0S16yZEl57733avVfGpVMnjz5V7omAwAAw5cAEAAAAAA6mD/tAwAAAEAHEwACAAAAQAfTBAQAgH6RmWYyz+T69evLhg0b6mPdunW/8nPpPJ05J9ONOh/TnCYfdaQGAGgPASAAAG2RwG/16tXlnXfeKR988EF56623ynPPPVdefvnl+r133323vPTSS78UAibkmzp1atl1113LmDFjajfqmTNn1o8zZswoY8eOrc1p8thhhx2EggAALRAAAgDQJ03wl8Dv+eefLzfddFOZN29eDf9WrlxZ/y1VgAn+8nn3HnSp+kvFX7pQN9V/Cf3yMcHgrFmzyqGHHloOOuigcuSRR5Y99tijBoEAAGw7XYABAGhJfo1cs2ZNDf3uvffe8r//9/8uzzzzTHn77bfLqlWr6vDfvkggmGAwgWCqA0888cTyuc99rlxwwQU2PgBAL6gABACg1xL+ZZjvggULyl/+5V+WuXPnlldeeaUGf+36+3LmDEzFYB6R11b9BwDQewJAAFqSG/L333+/DuvbXiWImDhxooOB7U6CueXLl5cbbrih/O3f/m15/PHHayVgfw8smTBhQp0bEACA3hEAAtBrCf0yt9ftt99eh/ptrzIc8eyzz3ZAsN157733yh133FH+23/7b3X4b1Oh198mT55cdtttNzsAAKCXBIAA9Fqqf5588snypS99qSxatGi73AZpXPAv/+W/FACy3ckw3IT/f/Inf1Keeuqpej0YkF9au7rKlClTyqRJk+wEAIDe/i5lEwDQinTzXLFiRZ0DbHuUADBDHmF7krDv5ZdfLtddd11t9jFQ4V+k+m/GjBll1KhRdgQAQC+NtAkAANgW7777bh36e9dddw14+J/5/3beeecavgMA0DsCQAAAtioNPpYsWVJuuummtnb63VYZ+jtt2rQycqRfXwEAestvUAAAbNXKlSvL/fffXx544IE6BcBAEwACALTOb1AAAGxVOv/efffd5Z133hmU9x8/fnzZaaedBIAAAC3QBAQAgC3KcN8EfwkA2zH3X+bxS1ffcePGldGjR9dHmuqsXbu2vlc+Np83Jk6cWHbddVcBIABACwSAAABs0fr168vy5cvLG2+8UT9vVcK7BHnTp08vu+22W5k5c2aZMmVKbe7x5ptvlrfeequ+fj7Pe61evbrON5iPGf6bTsCagAAA9J4AEACALVqxYkV59tlna5Veq80/Ev7NmDGjXHjhheVzn/tc2XvvvcuYMWNqoJdHXrd57Q0bNtQKwGXLlpUXXnihLF68uIaFo0aNsjMAAFogAAQAYItSgffqq6/2qfovlX6XX355ufbaa8v+++9fh/1uqZovYeCECRNqteDxxx9fhwwDANAav0kBALBF6fqbIcCtVv+lcu/QQw8t//7f//syderUbarka+YJFPwBAPSdWZQBANiiDP3NnHytBoA77LBDmT179jaHfwAAtJcAEACALcp8fAkAMzdfKyZNmlTmzJkj/AMAGCTGVADQaxmal26c++67bxk3bly/vEeaDrzyyit16GFL/8F1dZUdd9yxdhrtL/352tBJMt9fzkcAAAaHABCAXksVzwknnFD+7M/+rA4N7A/z588vX/ziF8vSpUtben4Cyosuuqj8/u//fr9th2nTpjkYYBvkjwbpAgwAwOAQAALQ0s18qnnSobPVOcG25v33369VQy3/B9fVVXbdddfaeKC/GM4IAAAMBwJAAFqSap4xY8b02+sn/EvQ2Ko8NwHd2LFj7SwAAGD7vn+zCQAAAACgcwkAAQAAAKCDCQABAAAAoIOZAxAA+kG6I69evbqsW7eufv3BBx/UrxsTJ07cOIfiuHHj6qMvcx4OB2kYk22QR5rIDCUbNmyo+yj7IPum3VauXFnXu2mak89XrVpV1q9fX7/O++Z4yHGQuSvzdT7PHJadflwMJStWrNh4nuaYyNfdO52n8VEzr2jmKR0/fvx20Qwox222Q7ZHzt2h3tG5Ob+yD7PcOf9yrjXX2uy3fBzI9cj75xqTj2vXrq3bMsuX4yfHVc7/fNRcCoD+IgAEgD7KDebbb79d3nvvvfLuu+/Wm7w333yzPnKTF6+++mp55513Nj5nxowZZfLkyfUGdKeddiq77LJLmTRp0sbuyvl6oG9Q+/PGN9vi9ddfL88880y9Gb/44ovreg72+mVfvfHGG2Xx4sV12fbff/9y8skn9/omPDf0CRyy/7N+TXCUj/m3vMfy5cs3BsI5FrJNmrApIV/2fzpXJwjI+0+dOrXsvPPO9TjYYYcdajA5ZcqUetwIBvumCffeeuutjedt9kXO03yv2aevvfZa7UjemD59ej1Hs+1z/E6bNq3uj3yefZRzOf/enw2SBlKO12yPbJcXXnihbqvzzz+/Xp+GyvLlHG6uuznHsh+b62/Owfzb0qVL6/7M+ZTH7rvvXnbbbbf6yD7MudbO4C3bKcdNcz3I+Z7ly3bMdSKf53qY5cv53fx/MHPmzHoNyDLlY0JmAGgXASAAtCA3k7nBTHD04osvlkceeaQ8++yz5emnn65f50a0N3Lzuccee5SDDz647LXXXuX4448v++yzT/08N6kJGNoV+KSa5/nnn6/L3r0qcau/NHR1lQMOOKAu57bcmGYbvfTSS3W73HXXXeXee+8t999/f5kzZ0456KCDyiGHHPIrXZoTyiRoyDbsjdws77fffttUWZjwJ4HtK6+8Uh588MFyzz33lJ/85Cf15vyLX/xiXa6EBFsKHbJ/c3OfG/s8cjO/bNmy8tRTT9XPX3755Y3BSfcAqbcSkCYY2HPPPevxkGVLSLnvvvvW/ZBHX6pHs2w5dre2jFmPrFe2XSsSgjz++OPlRz/6UUvPz3GSbZB1b1UTZiUMyvGV4/+hhx7aeN42gVFv90+OlZynCQePOOKIuo+yf3JMJmhqZyfynFPZF1nm3ixrjpEsU4KmrYXuuT4kpMp2WrBgQfnZz35WbrnlljJv3ryNx15PAWD2cUL0hKZNZevW5Pg98MAD6/Jt6z7MsdoE6jmHcy3LeZd9muXNebgt2ybX1OyvM844o5x33nl1ORIEtvJHiSxTlifbLB+feOKJulzN9njyySdr6Lctx3mW46yzzipnnnlmOeaYY+r1XxAIQDsIAAGgl0FGc0P38MMP1xvjBFYJlHJzmhv0psqrN3LDvGTJkhpC/PSnPy3f+9736s36aaedVm8Cjz766DJr1qxaJdbXIDDL94Mf/KB87Wtfq6HOtkq49gd/8AflU5/6VK102lJ4kHAl2yWBz913310WLVpUv5/AMeuaG/RmOGx3uYH+n//zf5avf/3rvVqnbKd/82/+Ta3e25yEV7k5z7Ldd999NZTMx3wv+zXLk/2Yr3sKALNvsk7ZZtn/Wafc5Od7CSSaoX35mEfer5VjYdNlTtCYgCPvdccdd9QwICFBjousdz6fPXt2HdbY22Mjx9wf/uEf1vXZ2vGZkKPVADDb53/9r/9Vvvvd77b0/FRG/dZv/VZLAWCOuZyz2V8PPPBADf3mzp1b93UzTD/7rZV1y3MSKmYfJeDMsZ5g6dBDDy2HHXZYOf300+u+SUDYjorXBOS33XZb+fM///N6rmyrBG2f//zny6//+q/X42Rz527Og4RqCfuyrXKdyPHeVLRmW6W6LT+76bGWfXzdddeVG2+8cZtD71QT/tEf/VH9o8CWjr2E7Fnf7MOcb/Pnz68haAK2LE9z3c0ybut+zDrlWFi4cGH9Q8BFF11UH7nubq2CM+uf981xlfXOsiT0a/4Q1FT7NteDfNwWWf68Tq5RP/7xj8vVV19dPv7xj5ejjjqqrUEyANsnASAAbINmOGBCo1SL5SY3N37tlBvF3IBHbqBzw/voo4/Wm9FUhFxwwQXlE5/4RA1D+jrEMDe/Wf7ehAhZttyAb65qMDevuflNMPrtb3+7BpkJzTaVIDBVTAlJetoGubHuzXJFKrgSkvUUADYhzXPPPVcD29xYpxKxp5vybJdm2Pamr3HrrbeW//Sf/lMNILalmqdd8t55dF/eVC3m8fd///flxBNPLFdddVUNBFMF2ZugoHtVXH9q9mserUgos7nQeUvrloAzoUwC9VSg5hjpj/3TVJzlHGmqS2+66aYaZKfK7IorrignnXRSraDd1mq3njQhXarcerPPsv0TLGU5Nw0A85o55lNBl0C8ub7lGrRpSJ9jsPtUBptuh2a47bYGgFmmhHmbBoB5rRwrud6kijj7MIFkrikJ13r640Er27KZkzTndq5buX79xm/8Rv2DS09DgrNe+X8g14AEhwnk87xcz7a16nFry5R91Ewr8V/+y3+p16w//uM/ruf55sJbANgWAkAA2IrccCeIS3B0/fXX1xvlJqjrb80N4Z133llvODO09MILL6wVIZlzbCDl5j+VKZsOr0vQkuVKuHLDDTfUZU0AkqBvc6+TYLDVarKeJJBr5m7b9IY9IUKqpm6++eY6nDHBwuYq8/IaPYWW2Q+58c/69xQQDpaEMQkhEoCm2uzaa68thx9+eJ0vcHueIzD7ONvk//2//1cDlMcee2yzx2N/SliV0Crhc6o1P/3pT5fjjjuuDjUdyP2T4z2h4aYhVc7FhKQ5LxKC5RqXcyDnU08hW657CbvaJdeJ7JtLL720fp0wLsuZ7ZWq1Jy3Gdab92waK7Uj/Ovp/E7glut79kuGbucPLZFt1gznT1iZIDJ/CMrX2U5ZrnaEfz3JMZsqxVRWpvI3U0N0yvySAAw8ASAAbEFuRlNp9V//63+tN369mTOvnTenTYVOliPL82//7b+tc0QNZDfdhAgJwZoAMAFetk9u0L/5zW/WACHVOlu7Qc/zM6ywr8Nju0sQliCje1CRUPL222+v1UwJgbINt7ZsqWDKY1MJBTLvWbZ3q1Vs/SH7IOuawCRVSQkoEzJddtlltWKuU0LAzD+5rcFHKlu///3v1yrUBEjbOvyyv/ZPMyS+mXMwwzozFDdD+rNeAyHLkOOj2RY59xJ0Zyh084eNZhj71q4Bm6sAbEWuJ/njSqoG80g1Xapzc87metfOPxJsy77Kdekb3/hGrdRM1WauGQmSE/jlDxvZfwP5B4Dm2p+h2DnPM/Q7w8k7oTkUAIPw+5RNAACbDxIyZ9n/+T//p4Z/vW0Q0B+yDJmv6stf/nK9mc+Q4FR7DYTc/DfD+/LInHQZ5ph5/nJjvLmqoZ7WIa/TzqqZhHbZX81w3wxlTOjXzGHWzPG3NakCyqMnTafXoSrrnvAkoWwaB2TYeJa5E2Q9tmUIcI6rhEd/+Zd/WYObwQz/epIhpn/1V39V99U111xTG7sMRAiYc66pyk2glNA+8xXm+pbK3YR623I+5g8g7RwunmtKriP/43/8j1oJmMA+51/O14EM/xpNJWCGjOfYybpmmVKN2MyDOBhybc3+yvmd6tE0BgKA3hIAAkAPchOY8OhP//RPayVKfww7a/UGNTfhqWzKDX0CqVQCDlQwleq33IRmPrVUDmW+sN7eFOfnt6XaqDeaoYy5Wc+Qy8yNl4qn3r5H0wRkU6mkSyOFdHZNsDRUJSjIUPG/+Zu/qcdEhp12wpDBrMuUKVO2+DMJPjPnXvZ9GnIMRTlOs5wJAVP99oUvfKF21e3vELCpJMu5m7A826iVaracu73tcL41md8vj6EiwWOG1afSuml8MhSu+wlps9/SKT7zp6oCBKC3BIAA0MNNbm7+Mp9dhpEOlfBv0yAhVSnf+ta36nxVmfdtICqJcvOfishUMmUIYSsVVqlCylDhdt9Yp6HAf/yP/7Ful1QBthIwJuDsaQhwpPJmayHUUJAAI1Wi6bqboYxpoDHchwJn+XtqytBIcJsh6Bm+mWNzqMvyZohy9k26G2e+uf7eR6na/du//dsajDdz6rVybexpjsxOk+taHkPp2p/rZa5xGTKdZj8aggDQWwJAANhEKrxSQZXqtv6a3L2vcmOaG9QMVcvcdNOnT69BYH9rmk70ddkTJLS7KUNCxTz6IsFhT81EEs6k+q+3nWgHS9YhDTAuuuiiuszDfSjwloYAN11cv/SlL9VhpMNBrisJ07/61a/Wrs2f/exny84779yv75lqv1QO90WuOQkvcw53cpOZofhHn0j4msr0j3/84wJAAHpN7TgAdJOhqZk7LnPIDcYcVK3c1P/whz+s83gNtfnOtmQoVxIlUOqp2cukSZNqCJjAZqhLgJGKr8zRmDkQh2qgsa22FABmKHyafmRI63CTfZMGOgkuh8v5m0q0hIDD4frYafJHk/yBaih1Igdg+BAAAsAvNHM/ZYhrU+Uy1CU0yA1hGnEkTBguErAlbB2KUpm1uXkAU2mZBhvDQY6NhNkZMjgY3avbKdu+pznPMudhhuvn+B+OoUj2y7x588p3vvOdGmQOB2nQ0b2jMAN7TqfKOfNHDtWp9Mv7AAAdBElEQVTqdACGLgEgAPxC5n5LFVHmkBtu7rrrrrJ48eJhc1PYDCUcilJlk5CjJ5kHcLgMA44M2U7jhwRlw9Xo0aNrE5Cehpymg2wCwFSTDucqxwS16cw7FDqNb00qADNXpgrAwdv+aUw1HI4VAIYWcwACwC+kki5hQoZO9lVCiwwXnTNnTpk2bVptHtG9gikBWN4nod2iRYtqgNGXG+os+9y5c2t3yB133HHIb+uEbEuXLh2Sy5ZgMsFZT9K0IXMtzp8//5e+n3Aq3XYnT55ch6vm47hx4+q+yJDh/Hu+n0f346Dp6pzwOdukqT5M85nNhZC9kaDmzjvvLP/sn/2zGl7+yi+CXV31OE2H462FDnmtVudtTAOPZv17K+fOPvvs8ytNQLLdcr7efPPNbQ2jsh8zH1+C3k3nWWu2Q6pXU3HYrsA9+ztD+Y866qiy5557DvlzN1VoxxxzjP80BkGOwaYC0zyAAPSGABAAykeB3DPPPFO7LPYlTGiaRRx77LH1BvmEE06oIWBCo+5denMTndAvQVKCu4Q0mcdvc8HTttyU//SnPy0XX3zxkA8Am7BsILoW91ZCpjw2V02WUCiPhFL5mH09ceLEjd9rGoU030/4m+q1hH759wRL3YOsZq6+ZcuW1Y/pzrpkyZJaiZrjYeHChX0KpHNcJ2ROU5B0mt00RMsyXX755VsNY/P8VKklaG7l/Mj8iSeeeGI5/vjje/3chIY5nzY9XrLNHnnkkbYMfc9rp5nOgQceWAO42bNn1+HeWe7uEjpmWySASRXW448/XvdXX8PanL8JM7P/8749DXceKudu/riR87eTm4AMZTn/8kcKQ4AB6PXvOzYBAJR6E58wrq+NKRIgJFD57d/+7bLXXnttNuRqGkrk5y+99NJy7733lhtuuKFcf/31NdhoJUC4/fbb69xQe++995C8OU/4lADsgAMOKGeddVatdhoqUqWXgCwh1RlnnLHZKqz8zCWXXFIOO+ywMmvWrFqZlv2Y0KbVTrupFszzu0uVWcK/6667rnb9bOWYaMKCBIgJrPbff/8aSnaXZf/85z+/1dd59tln6xx1+dhKAJig8fzzzy//4l/8i7btsyxLmvX0dShkjsnTTjutnHnmmbW7asK/rVVWZRvkmpGuulmGG2+8sVbFtfrHg6xDwsQMA841IcfEUDt3U0GaIPboo4+uj8FuhpNlaq6jCdpz/qXqNqF3QuHsj4GuMs51N8uQP/jkmM9yZTs152EC9CxTX+ZPzGulAlUACEBvCQAB4OdSzZObs77c+OWm7zOf+Uy58sorawi3abXV5qSa5qSTTqoVSBkOnFCht0MtczOY8DI3vgkThlKn2lQzJWQ5+OCDyymnnFKrwBKytRqYtVO2ffZblunkk08uF1xwQQ328v2epAHIJz/5ybq9s3+zbs2jnRLUJWzJe2SoaULAVufxy7ImGO6kOcMSoKRaLtWNfanYTah1zjnnlH/1r/5VHT7fVGtuyzGdYdOf+tSnyqmnnlqrbhPeJ2jty/IkBEwV8FAJAJvK1YT1OR4vvPDCst9++9Vr1bZe39op1YepsM31NaF5qqtzvia0zfdzTcm1M9fRhx9+uHzve9+r+6Q/w7KmejTXkfzhIMdFwvaEf1muHFN5/1SONkPW0/il1eH0ANDy/1k2AQD0PQBMJUoqw/7JP/knv1LNtS1SNZKqsiuuuKLOB7bpHHPbIsFDGpgkZEtVzGBLKJrw4PDDD6/bJlVWCRGGgqbiL0Fkgr9PfOIT27TfEogMRLiabZdgIcdEquYee+yx+mhFjotU7w33TsDdpQIqQ/ZTKdmqhKwJ63/nd36npWrUHAupFEzIk32UAOjP//zP67WkVRnS3AzXHgrnbs7ZVMUm+EuoNRh/WMh2TpiW98/5kAAyFYj5mO/3JOd0pkPIdfArX/lKbRbT7mVqhoznkWtcli9/5MgfCRJU9uT000+vjz/4gz+o53MrwWSmDcg8gMO56Q0Ag0MACMB2rxlS1ZfhYrn5S5iUEKAvEt79+Mc/rpVAucnrrYQPqRQbzAAw4UEC0dygpzoqQyvPPffczd4UD6RmKGMq/nIjnmBySxV/gy2ByxFHHFGHGifwaiXES1CQ6tC+DDscarI+CTX7Yt99963VnAlv+iqhz2WXXVa7cWe4dqtzAmZYcULN7LPBGMbfNKs55JBDalh/zTXX1MrIhKUDXfGXP4pkGoUc+5lLNaFf5lVNMJlrydYqNbMeuSZnPs12BYC5TqTCL9skYWSCxiOPPLLu/yxPUxW8pXXK9fC4446rVYqtzPma/6/SKEgXZgB6SwAIwHYvczMlTOhLNVHCpAzj7etQ0ObmMsPEUgnUWxnqOZhDy3KDm4qY8847r/zar/1aDQDzvaEwJ2GCg+ynhAKZjy6VW0NpqHRPmkAm4ccDDzxQA6JWAoOEUp00BDhhfYb/tiqBVo6FBDHtCLZSrZkgOUF3qnAT4LciwU7mrkvQm/NmIOVcSJiV7ZKKvwTPg9FQKO+ZUDaPXEOyTAkBWzl38hq5nmZ4dl/keMkfNJpGNrmGpCN4b/9w0DRRyf8Vt956a8sBYALwVv5ABMD2TQAIwHYv1Trvvvtuy0OqckOXSpW+Vv9FwogM/8tNcCsBYCoZB2OoZ5Y7VYcZMphGCplLL/P+DYVuoRmmmVAyN91XXXVVDTZSoThUO632JOHlUK1SHAwJ63OstyrDvTNcs91z7SUcSrDcagCYUCcBYK5JAxUAJrxMmJXzIudHwq0MrR3oir8sR0K2pmI4wV1C1b4sR7ZhX7ZjM/z4Yx/7WDn77LNrONo09ujL9SPXyqH+xwcAOo8AEIDtXioAU3nTagCYyeczBKwdN3TNDWerDTLSBGQgKwAT7iVESWiQZgqZdyvhylAY7pttmcqhBAoJNjLPW0LJ4SgBoMDgHyUA7EvH7nSiTijc7nA6TSmaytJWgvgEgKlGTgCY60p/n7s5HxKMp5lJPmZY9GAF47nmZRj1F77whbZNYZB17Ms+znUs17Y/+qM/qtumXXJ8DEYTFQC2bwJAALZ7fQ0AczPXrnCm6ZibqrVWpGNsf3a8/KVfIrq66tyHqYpJM4UMUx0qlXUJzFJBlDneUr1z0EEHDauKv02l4YAA8B+lYrcvAWAC+/6YJzPHWOaYzPnbSgCY4Z0JN/v7HM6xlLAyQ/XzyNyjfa1q66tUuOa8HQrdwbvvz1R257oGAMOdABCA7V6Cv750VGxnFVHTQKPV4Z4D0Rkyy5jwJBV/6VqcYb8JPYaCVNUk2Pj0pz9dg780D0hQOdypGGrvsZ7zqz8C1ZwbqdxLAPj2228PuW3WdPdNMJ7O1xlqm/nthsIcne2+lrZzmYbicgFAbwkAAYDe/fLQ1VUr6n7nd36ndsEcCsN9G6keyjL97u/+bq3y6oTwj+GjrxW8/S3nagLy3/u936sVskN1OQGAfvgd3iYAAHqjaVSSIGGoNaZIALj33nvXeQhhoPW1gre/JQDMuZG5MYV/ALB9EQACQB9lzq4f/ehH5dVXX+3za2UOsKVLl5YlS5bYsAAAQFsIAAGgj9JA5LrrrrMhAACAIWmkTQAAAAAAnUsFIABAH6Uj7bvvvluef/75OoT7tddeq18vW7asrFq1qs+vv3jx4rYMMQcAYPskAAQAaNGKFStqODd//vwa/j3++OMb53B85513yhtvvFFWrlzZlvdKyAgAAK0QAAIA9NLq1avLU089Vb7zne+UBx54oCxYsKBW+61Zs8bGAQBgyBEAAgD0wgcffFBuu+228v3vf7/88Ic/rMN9AQBgKBMAAgBsozfffLPceOON5c/+7M/KE088oeIPAIBhQQAIALAN1q1bV2655Zby1a9+tTz22GNl/fr1NgoAAMPCSJsAAGDLNmzYUB5++OHy5S9/udx7773CPwAAhhUBIADAVmTob+b9mzdvnvAPAIBhRwAIALAV9913X/nxj39cli9fbmMAADDsCAABALYgc/899NBDZeHChTYGAADDkiYgANBHO++8c7n66qvLUUcdNejLMmHChLLPPvvYKW30yiuvlPnz55c33nijLa83YsSI+uiNDz/8sD4AAKAVAkAA6KOJEyeWc845p1x22WU2RodJ6Pbqq6+W119/vS2vN3bs2LLTTjuVHXbYoVfPW7lyZZ2HcM2aNXYKAAC9JgAEANiCJUuW9CkAHDVqVDnmmGPKqaeeWg455JBaMZogsDceffTR8tWvfrU8//zzdsgQp1ITABiKBIAAAFuQob+pvmvpF62urrL//vuXa6+9tlaJzpw5s4wePbrXrzNmzJjy7W9/284Y4hL+vf3222XVqlU2BgAwpAgAAQA2I4HOO++8U957772Wnj958uQ6P+SVV15ZpkyZYoO2UW/nUdx0v/ZHpd6GDRvKsmXLygcffGAHAQBDii7AAABbkFAnj1ZMnz69HHroocK/Nsuw6lRXturdd9+twW5/HCt57dWrV9tJAMCQIgAEYLuXcGa33XZruaIoQUJu+s391XmWLl1aH61KR+Zp06bZkP1wzvZluy5evLi8+OKLbV+u5cuX19desWJFS8/P8PC99tqrjB8/3k4GANpKAAjAdm/cuHG1k2+rAeD7779fh/2Z96vzZOhv9m+r0u038/fRXhMmTOhTVeULL7xQH+2W13zllVfKunXrWvvFfOTI2iW6lXkiAQC2+HuGTQDA9i7hXzqzthoArl+/vjz++OPlmWeesTFhACQk23333Vt+fro6/+xnP6vVeu2S0O/mm28uTz75ZMuvkbB49uzZNTgGAGgnASAA270Mt0sA2JdKrYceeqjMnz/fxuwwqcTqSzXW2rVra0BMe2XIfobKtir75MEHHyz3339/3Ud9lfBv4cKF5b777qtdo1s1derUOrRZBSAA0G4CQAC2e2kokEChLxVFTz/9dPnOd75TQ8BWh/9tq4QXaTKQecYy9Pjll1/WdKCf5LjYZZddWn7+q6++Wt56662W54fM89asWVNWrlwpSOwm5+q+++5bh8y2KnMA/s3f/E25/vrr61DvVhq9NPsnQeJf/MVflLlz5/YpUDzkkEM0jAEA+kWXTQAAHwUKqShqdRhvArh77rmnfOtb3yq/+Zu/WQ444IB+Wc6EQEuWLCkLFiwozz77bB1umMDg937v98qsWbPsyDbL/JB9aciwaNGi+khINHbs2F4/P8HUvHnzaric/c5HMgfgnnvuWcPZhOCtBKwJ/FIFmHM3of0555xTuzb3RkL4vMZXvvKVctttt9VmQH2x//77l0mTJtnBAEDbCQAB4Bc33kceeWS59dZbWwoT8pwM/fv6179ehwNffPHF5bTTTquhYldXV61Uah49PTdhRPOx+yNzleV1M1dZgqTMNfjaa6/V76eyLF1HEwDm/QSA/SNhU+Zka6Wza/bdDTfcUI+tPDLMPBWnm0qwm0eCqDwS7j766KP1eEzIm2C6L81IOk3Oozlz5tRtevvtt7dcdZd9+sADD9QQMfvpzDPPrFV4CfBzXmVfNXOD5vzMPkqYm3Mx++WOO+6o++mpp55qufNv5D1yjJ1wwgl1GDAAQLsJAAGgfFQBmBAw1V59uZFPlVZCnwQEN954Yzn44IPLfvvtVyuVMpw0cw1uKoFCnpf3feedd8qbb75Zli5dWgO+vFaCn3ye7yf8y893Dw4SXuTfEoKYO6y9sn1TkZVGMa0cF9knGRb6pS99qZx33nnl9NNPr3O8JRTuLsO4s28TKmUuuTwyRPW5556rw3/5VTNnziyHH354ueuuu/o07DZBe7ZztncC9j322KOeq5MnT67Xhez75jzNPkqVX87HfP7888+3JZhNMJzrT9ZJ12gAoD8IAAGgfDTUM5U/CRQypK8v860ljEhFUB533nlnDf1S3ZPHpsNJm6q/hAh5XoYjJvD54IMPtmnetzw/FWMvvPBCfY10R6W9MtQ0oVBC2d7K/klg9H//7/+tDSJSpZmKwgTC2e/5t3xM8Jv9lyA3gW72f6vzBm4vUqF38skn1wAwVXx9lfMvQWAekSrDhH9NqJ5zMfulHU1DelqXz3zmM/VYAwDoDwJAAPiFVOodf/zxdX693Oi3Q0KdgRi6mQqyLLMAsL1SAThjxowaAGYuvr4cBxnWm0ckDE7Al8C3leYTfBTQZQhwqirbEQBuqgloB0IqhRNm7rjjjnYsANA/vzvZBADwkcy99fGPf7zOw9XM+zVcZMjo22+/bSf2g8zjmHA4VaLtkuHEqfAU/vVNhsxecMEF9ZwdjsPfE2Im9Lv66qvLgQce2KeuxgAAW/y9wyYAgH+8GT/66KPLWWed1afOr4MhTULaVbXIL8uxkPnZDM8cejKX4mGHHVbP2czZN9wkVD7llFPKSSedNCyXHwAYRvc6NgEA/KM0aLjkkkvKJz7xiTpMc7hIs5BXXnnllxqE0D4ZZnrqqaf22MGXwZVh79dcc035jd/4jTpn33Cp3s2xlODv93//92uFqWMLAOhPAkAA6P4f48iRZd999y1XXXVVOfbYY4fNcmcuuXQx1TG2f+SYyDDTNO9g6J2zBxxwQLnsssvKUUcdNSyG0Sbsy7GUob8nnnhiW4eXAwD0+DuTTQAAvyw34+eee2755//8n5cjjjhiWNycp/LvkUceqd1kab8MA84xcfbZZ9cqs8GS4Gi4zU85EMaMGVMD+3/37/5dufzyy2v17lDcTlmmLGual/yH//AfyqWXXlo7AAMA9DddgAGgB5mY/5xzzinvvfde+fu///ty9913D+nlXbt2be0wOxAdh7dHCW7ScCLDwzPf4r333jsoy5FGNelMu2rVKjtlEwn9MlQ7Q4JzPtx000212cpQkkYlBx10UPn85z9fzjvvvLo/BboAwEAQAALAZuTm/IorrqgNIK677roaAi5ZsmTIzbOXIY+pDHv55ZcNAe7PX5q6usrHPvax2mzlrbfeKs8991y/HwupFkv1YYa2XnzxxTXg/drXvlYWLVpkh/Rg0qRJ5bjjjiv/+T//59pcI+H9888/X/fZhx9+OGjLlSriBJOf/OQna9Xf8ccfX5dV+AcADNjvsjYBAGxeKgEz91uG6SVY+MpXvlIWLlw4ZJYv4V+WMc0E0qRixowZdlo/ynFw4YUXljfffLOGSwsWLOjX90tziDSkueiii8qhhx5aw6zvfe97AsAtSJXdgQceWOfYS+fm7373u+Uf/uEfBrVLdrqLX3nllbXqb9asWeb8AwAGnAAQgCEplTG5kU8FVCvyvFRstcPYsWNr+JIb99zIz507twYKTzzxRB2OmQYcGXLYXxVGCfmyLbI+WZasW5pSJBxKJVEqFBN0JPBIGLgtUjGY12ll+zbbtj+ql/KazbIN9n7f3PLtuuuu5bd+67fq/JCpDL3vvvvKsmXLajVgq8dAs48zjDWVYTnOEuiefPLJZfbs2XXfZr3yHgcffHAd7r2t1Z55Xl/3V56b18j2baXJRtZtILvcZhl32223GpwmuM+8gPfcc0+57bbbymuvvVa3Xc7b9evXt/V9s47ZTqnazH7MHw8yLDnViPvss0+ZPHlyn8+bdpy7/XVuNMdIq8vWH8dIX68n/THvZnO+t7pcea7qUQB6SwAIwJCUICQBV26YW5Hhuwlq2nnDluqvdOxMAHPmmWfWAPDmm2+uzTeefvrpfplvLO+bbZDAb++9967B0CGHHFIDv3w/wVCCht7cOOfGMdsn27eVBgQJIadPn15vQtstr7n77rvXedJakX0+EJ168z6nnXZa3Y4ZGv7Nb36zPPbYYy0fAxMmTKidbDPvZI6x7O9p06bVYaPd921+LqFgOj6//fbb2xyA5HhpNWxogpC8RirrWgnNcrxkXQbjOjJnzpx6TCUsTyCYqs1bb721PProo+XVV19t6/slgE/Ql+tD9mOO47x3vt+O7sTZl9mOOXd33nnnXj8/wWTmsuyPoC3h3x577FGP41bOg6xPzqd2d3HOa7Z6Pcm1Ludhu7dXzuMcl63+wSD/F/TnHzoA6EwjPhzMCVEAYDNyA5mQI5V1rd6M5kY5N9/9JY0Yli5dWjvvpqrojTfeqPPCJVTI99NAJB+31JgjYVxuBhNa5WYzQUFuhFO9lI8JE7Ie+ZmEGQnsEvj1JXzLf/2pWMsw1nXr1vX+l4efL3OWM9u23SFgKtyyHbNsre733PBn+w2EhGHZz5l/8aWXXioPP/xwefLJJ2ujkOXLl/9Ks46EG9mf2d8Jxfbaa68aMGQ/J1TMcmcfby6sy/vldbP/tnXfZX/lmEk402oImP2S+S+zrq386pjjJOuXfTOYss1yPmb75bzNfsoj5+nrr7++8fs5Bre0fbMe2U85R/NIdXCzP5sgK/s553S7j7cEv1neVs7dHH/pYp0wt92hVq7V2YbZfhs2bGjp3M0xku3XzhAw+zTX55ZulH7xx5IsVzsDtxyD+X8iVaityP8FOeb6448wAHQuASAAtClYyA1w5hlL6JMbu3wvwcnWbtS7D63MDV0ezVDf3Oip9Bgesv8zJDwhWYaYZt9vGoR0H9qeeeBSkdV8HMghsnwk52n+2JB9lfM2H7MftzacO/uvOVebRi3Zj3m0u4INAKAdBIAAAAAA0MH8iRIAAAAAOpgAEAAAAAA6mAAQAAAAADqYABAAAAAAOpgAEAAAAAA6mAAQAAAAADqYABAAAAAAOpgAEAAAAAA6mAAQAAAAADqYABAAAAAAOpgAEAAAAAA6mAAQAAAAADqYABAAAAAAOpgAEAAAAAA6mAAQAAAAADqYABAAAAAAOpgAEAAAAAA6mAAQAAAAADqYABAAAAAAOpgAEAAAAAA6mAAQAAAAADqYABAAAAAAOpgAEAAAAAA6mAAQAAAAADqYABAAAAAAOpgAEAAAAAA6mAAQAAAAADqYABAAAAAAOpgAEAAAAAA6mAAQAAAAADqYABAAAAAAOpgAEAAAAAA6mAAQAAAAADqYABAAAAAAOpgAEAAAAAA6mAAQAAAAADqYABAAAAAAOpgAEAAAAAA6mAAQAAAAADqYABAAAAAAOpgAEAAAAAA6mAAQAAAAADqYABAAAAAAOpgAEAAAAAA6mAAQAAAAADqYABAAAAAAOpgAEAAAAAA6mAAQAAAAADqYABAAAAAAOpgAEAAAAAA6mAAQAAAAADqYABAAAAAAOpgAEAAAAAA6mAAQAAAAADqYABAAAAAAOpgAEAAAAAA6mAAQAAAAADqYABAAAAAAOpgAEAAAAAA6mAAQAAAAADqYABAAAAAAOpgAEAAAAAA6mAAQAAAAADqYABAAAAAAOpgAEAAAAAA6mAAQAAAAADqYABAAAAAAOpgAEAAAAAA6mAAQAAAAADqYABAAAAAAOpgAEAAAAAA6mAAQAAAAADqYABAAAAAAOpgAEAAAAAA6mAAQAAAAADqYABAAAAAAOpgAEAAAAAA6mAAQAAAAADqYABAAAAAAOpgAEAAAAAA6mAAQAAAAADqYABAAAAAAOpgAEAAAAAA6mAAQAAAAADqYABAAAAAAOpgAEAAAAAA6mAAQAAAAADqYABAAAAAAOpgAEAAAAAA6mAAQAAAAADqYABAAAAAAOpgAEAAAAAA6mAAQAAAAADqYABAAAAAAOpgAEAAAAAA6mAAQAAAAADqYABAAAAAAOpgAEAAAAAA6mAAQAAAAADqYABAAAAAAOpgAEAAAAAA6mAAQAAAAADqYABAAAAAAOpgAEAAAAAA6mAAQAAAAADqYABAAAAAAOpgAEAAAAAA6mAAQAAAAADqYABAAAAAAOpgAEAAAAAA6mAAQAAAAADqYABAAAAAAOpgAEAAAAAA6mAAQAAAAADqYABAAAAAAOpgAEAAAAAA6mAAQAAAAADqYABAAAAAAOpgAEAAAAAA6mAAQAAAAADqYABAAAAAAOtj/B95N9vEKTPFcAAAAAElFTkSuQmCC;clipPath=inset(12.72% 28.33% 13.31% 29%);" vertex="1" parent="1">
          <mxGeometry x="708.3100000000001" y="-195.5" width="100.36" height="98" as="geometry" />
        </mxCell>
      </root>
    </mxGraphModel>
  </diagram>
</mxfile>
